<svg width="200" height="96" viewBox="0 0 200 96" fill="none" xmlns="http://www.w3.org/2000/svg">
<g clip-path="url(#clip0_875_27019)">
<path d="M110.81 46.81H124.112C122.673 47.8159 121.73 49.4848 121.73 51.37V67.96C121.73 70.9739 119.284 73.42 116.27 73.42C113.256 73.42 110.81 70.9739 110.81 67.96V46.81Z" fill="#FF0062" stroke="#FF0062"/>
<path d="M110.23 67.88V63.33V40.96V13.93C110.23 13.14 109.59 12.5 108.8 12.5H74.91C74.12 12.5 73.48 13.14 73.48 13.93V65.6C73.48 69.97 77.02 73.51 81.39 73.51H115.53V73.49C112.58 73.32 110.23 70.88 110.23 67.88Z" stroke="#18191B" stroke-width="1.5" stroke-miterlimit="10"/>
<path d="M121.79 52.14V68.1C121.79 71.09 119.37 73.51 116.38 73.51H115.54" stroke="#18191B" stroke-width="1.5" stroke-miterlimit="10"/>
<path d="M121.79 52.14C121.79 49.15 124.21 46.73 127.2 46.73H128.04" stroke="#18191B" stroke-width="1.5" stroke-miterlimit="10"/>
<path d="M98.42 73.51V83.47C98.42 83.61 98.61 83.67 98.69 83.55L102.66 77.76C102.68 77.73 102.73 77.73 102.76 77.76L106.87 83.76C106.93 83.84 107.05 83.84 107.11 83.76L111.22 77.76C111.24 77.73 111.29 77.73 111.32 77.76L115.43 83.76C115.49 83.84 115.61 83.84 115.67 83.76L119.78 77.76C119.8 77.73 119.85 77.73 119.88 77.76L124 83.76C124.06 83.84 124.18 83.84 124.24 83.76L128.36 77.76C128.38 77.73 128.43 77.73 128.46 77.76L132.44 83.55C132.52 83.67 132.71 83.61 132.71 83.47V51.89C132.71 49.04 130.4 46.73 127.55 46.73" stroke="#18191B" stroke-width="1.5" stroke-miterlimit="10"/>
<path d="M85 42H103" stroke="#18191B" stroke-width="1.5" stroke-miterlimit="10" stroke-linecap="round"/>
<path d="M85 47H103" stroke="#18191B" stroke-width="1.5" stroke-miterlimit="10" stroke-linecap="round"/>
<path d="M85 52H103" stroke="#18191B" stroke-width="1.5" stroke-miterlimit="10" stroke-linecap="round"/>
<path d="M85 57H103" stroke="#18191B" stroke-width="1.5" stroke-miterlimit="10" stroke-linecap="round"/>
<path d="M85 62H103" stroke="#18191B" stroke-width="1.5" stroke-miterlimit="10" stroke-linecap="round"/>
<path d="M94.59 24.07V23.09C94.59 21.85 93.59 20.85 92.35 20.85H90.89C89.65 20.85 88.65 21.85 88.65 23.09V24.93C88.65 26.05 89.56 26.96 90.68 26.96H92.57C93.69 26.96 94.6 27.87 94.6 28.99V31.01C94.6 32.25 93.6 33.25 92.36 33.25H90.9C89.66 33.25 88.66 32.25 88.66 31.01V29.38" stroke="#18191B" stroke-width="1.5" stroke-miterlimit="10"/>
<path d="M91.62 20.53V18" stroke="#18191B" stroke-width="1.5" stroke-miterlimit="10"/>
<path d="M91.62 20.53V18" stroke="#18191B" stroke-width="1.5" stroke-miterlimit="10"/>
<path d="M91.62 36.23V33.7" stroke="#18191B" stroke-width="1.5" stroke-miterlimit="10"/>
<path d="M31.64 42.22C34.12 40.28 37.32 39.77 40.26 40.91C43.47 42.15 45.97 44.91 48.65 46.98C51.18 48.94 53.99 50.7 57.25 50.95C61.23 51.26 64.61 48.78 67.11 45.93C68.38 44.48 66.26 42.35 64.99 43.81C62.57 46.57 59.5 48.79 55.7 47.63C52.71 46.72 50.23 44.47 47.88 42.5C45 40.09 42.02 37.76 38.15 37.35C34.98 37.02 32 38.17 29.53 40.1C28 41.29 30.14 43.4 31.64 42.22Z" fill="#002BFF"/>
<path d="M153.654 44.9301L153.653 44.9285C153.461 44.6457 153.452 44.41 153.51 44.2257C153.573 44.0251 153.735 43.8289 153.972 43.6913C154.453 43.4124 155.059 43.4553 155.416 43.9805C158.74 48.9031 160.122 55.3668 157.625 60.8426C155.409 65.6986 150.203 68.8302 144.923 68.0853C144.728 68.0554 144.532 67.9066 144.393 67.6415C144.254 67.3738 144.222 67.0741 144.28 66.8691C144.439 66.3321 144.931 66.079 145.577 66.1746L145.58 66.1751C150.105 66.8154 154.462 63.4409 156.054 59.4763L156.054 59.4754C158.018 54.5548 156.437 49.0474 153.654 44.9301Z" fill="#FF0062" stroke="#FF0062"/>
<mask id="path-17-inside-1_875_27019" fill="white">
<path fill-rule="evenodd" clip-rule="evenodd" d="M133.62 32.05C128.85 33.69 123.22 34.17 118.26 33.12C116.37 32.72 117.18 29.83 119.06 30.22C123.88 31.24 129.92 30.59 134.51 28.49C134.69 28.408 134.869 28.3231 135.047 28.2351C134.199 25.0433 134.502 21.1533 136.51 18.51C138.41 15.99 142.3 15.1 144.1 18.2C145.88 21.27 143.7 24.83 141.6 27.11C140.756 28.0286 139.804 28.8301 138.779 29.5266C138.84 29.6271 138.904 29.725 138.97 29.82C139.928 31.1996 141.449 32.0464 142.903 32.8558C143.104 32.9675 143.303 33.0785 143.5 33.19C145.23 34.17 146.92 35.22 148.52 36.4C151.134 38.3199 153.593 40.6669 155.51 43.3478C154.318 42.3768 152.247 43.7519 153.24 45.21C153.246 45.2182 153.251 45.2263 153.257 45.2345C150.958 41.8898 147.696 39.2872 144.28 37.14C143.646 36.7414 143 36.364 142.358 35.9888C139.996 34.6092 137.683 33.2583 136.227 30.987C135.38 31.3943 134.506 31.7469 133.62 32.05ZM156.023 57.9825C155.901 58.4374 155.751 58.8872 155.57 59.33C154.073 62.9993 150.162 66.0531 146.077 65.7278C150.167 66.0655 154.111 62.9719 155.59 59.29C155.762 58.8589 155.906 58.4225 156.023 57.9825ZM144.627 65.7887C144.24 65.947 143.93 66.2538 143.79 66.73C143.59 67.43 144.04 68.46 144.84 68.58C147.06 68.8897 149.167 68.5746 151.053 67.7909C149.119 68.5753 146.993 68.8828 144.85 68.58C144.05 68.46 143.6 67.43 143.8 66.73C143.939 66.2579 144.244 65.9492 144.627 65.7887ZM159.39 55.4964C159.546 52.5705 158.926 49.8008 157.774 47.2465C158.902 49.8558 159.511 52.6927 159.39 55.4964ZM137.713 26.5911C138.97 25.6314 140.067 24.4724 140.89 23.1C141.55 22 142.15 20.66 141.36 19.49C140.86 18.74 139.48 19.54 138.91 20.28C137.654 21.899 137.32 24.3693 137.713 26.5911Z"/>
</mask>
<path fill-rule="evenodd" clip-rule="evenodd" d="M133.62 32.05C128.85 33.69 123.22 34.17 118.26 33.12C116.37 32.72 117.18 29.83 119.06 30.22C123.88 31.24 129.92 30.59 134.51 28.49C134.69 28.408 134.869 28.3231 135.047 28.2351C134.199 25.0433 134.502 21.1533 136.51 18.51C138.41 15.99 142.3 15.1 144.1 18.2C145.88 21.27 143.7 24.83 141.6 27.11C140.756 28.0286 139.804 28.8301 138.779 29.5266C138.84 29.6271 138.904 29.725 138.97 29.82C139.928 31.1996 141.449 32.0464 142.903 32.8558C143.104 32.9675 143.303 33.0785 143.5 33.19C145.23 34.17 146.92 35.22 148.52 36.4C151.134 38.3199 153.593 40.6669 155.51 43.3478C154.318 42.3768 152.247 43.7519 153.24 45.21C153.246 45.2182 153.251 45.2263 153.257 45.2345C150.958 41.8898 147.696 39.2872 144.28 37.14C143.646 36.7414 143 36.364 142.358 35.9888C139.996 34.6092 137.683 33.2583 136.227 30.987C135.38 31.3943 134.506 31.7469 133.62 32.05ZM156.023 57.9825C155.901 58.4374 155.751 58.8872 155.57 59.33C154.073 62.9993 150.162 66.0531 146.077 65.7278C150.167 66.0655 154.111 62.9719 155.59 59.29C155.762 58.8589 155.906 58.4225 156.023 57.9825ZM144.627 65.7887C144.24 65.947 143.93 66.2538 143.79 66.73C143.59 67.43 144.04 68.46 144.84 68.58C147.06 68.8897 149.167 68.5746 151.053 67.7909C149.119 68.5753 146.993 68.8828 144.85 68.58C144.05 68.46 143.6 67.43 143.8 66.73C143.939 66.2579 144.244 65.9492 144.627 65.7887ZM159.39 55.4964C159.546 52.5705 158.926 49.8008 157.774 47.2465C158.902 49.8558 159.511 52.6927 159.39 55.4964ZM137.713 26.5911C138.97 25.6314 140.067 24.4724 140.89 23.1C141.55 22 142.15 20.66 141.36 19.49C140.86 18.74 139.48 19.54 138.91 20.28C137.654 21.899 137.32 24.3693 137.713 26.5911Z" fill="#002BFF"/>
<path d="M118.26 33.12L118.467 32.1417L118.467 32.1417L118.26 33.12ZM133.62 32.05L133.296 31.1039L133.295 31.1044L133.62 32.05ZM119.06 30.22L119.267 29.2417L119.263 29.2409L119.06 30.22ZM134.51 28.49L134.096 27.5799L134.094 27.5807L134.51 28.49ZM135.047 28.2351L135.49 29.1314L136.223 28.7687L136.013 27.9785L135.047 28.2351ZM136.51 18.51L137.306 19.1149L137.308 19.1121L136.51 18.51ZM144.1 18.2L144.965 17.6984L144.965 17.6979L144.1 18.2ZM141.6 27.11L140.864 26.4326L140.864 26.4335L141.6 27.11ZM138.779 29.5266L138.217 28.6994L137.428 29.2353L137.926 30.0488L138.779 29.5266ZM138.97 29.82L138.148 30.3898L138.149 30.3903L138.97 29.82ZM142.903 32.8558L143.39 31.982L142.903 32.8558ZM143.5 33.19L143.006 34.0596L143.007 34.0601L143.5 33.19ZM148.52 36.4L147.926 37.2048L147.928 37.2061L148.52 36.4ZM155.51 43.3478L154.879 44.1233L156.324 42.7661L155.51 43.3478ZM153.24 45.21L154.068 44.65L154.066 44.647L153.24 45.21ZM153.257 45.2345L152.432 45.8009L154.086 44.6758L153.257 45.2345ZM144.28 37.14L143.747 37.9864L143.748 37.9867L144.28 37.14ZM142.358 35.9888L141.853 36.8523H141.853L142.358 35.9888ZM136.227 30.987L137.069 30.4475L136.592 29.7024L135.794 30.0857L136.227 30.987ZM156.023 57.9825L156.989 58.2396L155.057 57.724L156.023 57.9825ZM155.57 59.33L154.644 58.9519L154.644 58.9524L155.57 59.33ZM146.077 65.7278L146.157 64.731L145.995 66.7244L146.077 65.7278ZM155.59 59.29L156.518 59.6627L156.519 59.6607L155.59 59.29ZM144.627 65.7887L145.014 66.711L144.249 64.8629L144.627 65.7887ZM143.79 66.73L142.831 66.4479L142.828 66.4553L143.79 66.73ZM144.84 68.58L144.692 69.569L144.702 69.5704L144.84 68.58ZM151.053 67.7909L151.437 68.7143L150.677 66.8642L151.053 67.7909ZM144.85 68.58L144.702 69.569L144.71 69.5702L144.85 68.58ZM143.8 66.73L142.841 66.4478L142.838 66.4553L143.8 66.73ZM159.39 55.4964L158.391 55.4531L160.388 55.5499L159.39 55.4964ZM157.774 47.2465L158.685 46.8353L156.856 47.6434L157.774 47.2465ZM140.89 23.1L141.747 23.6145V23.6145L140.89 23.1ZM137.713 26.5911L136.729 26.7654L137.015 28.3825L138.32 27.3859L137.713 26.5911ZM141.36 19.49L140.528 20.0447L140.531 20.0496L141.36 19.49ZM138.91 20.28L139.7 20.8931L139.702 20.8903L138.91 20.28ZM118.053 34.0984C123.206 35.1893 129.021 34.6888 133.945 32.9957L133.295 31.1044C128.679 32.6912 123.234 33.1507 118.467 32.1417L118.053 34.0984ZM119.263 29.2409C117.682 28.9128 116.588 30.0092 116.283 31.1059C116.128 31.6613 116.138 32.3091 116.429 32.8904C116.734 33.5016 117.302 33.9394 118.053 34.0984L118.467 32.1417C118.273 32.1006 118.233 32.0273 118.218 31.9963C118.187 31.9353 118.163 31.8101 118.21 31.6417C118.256 31.4755 118.352 31.3411 118.458 31.2657C118.545 31.2034 118.664 31.1592 118.857 31.1992L119.263 29.2409ZM134.094 27.5807C129.699 29.5915 123.877 30.2173 119.267 29.2417L118.853 31.1984C123.883 32.2628 130.141 31.5885 134.926 29.3994L134.094 27.5807ZM134.603 27.3389C134.435 27.422 134.266 27.5023 134.096 27.5799L134.924 29.4002C135.114 29.3137 135.303 29.2242 135.49 29.1314L134.603 27.3389ZM135.714 17.9052C133.464 20.8667 133.181 25.103 134.08 28.4917L136.013 27.9785C135.218 24.9837 135.54 21.4398 137.306 19.1149L135.714 17.9052ZM144.965 17.6979C143.851 15.7805 142.033 15.0653 140.238 15.253C138.501 15.4345 136.812 16.4485 135.711 17.908L137.308 19.1121C138.108 18.0516 139.314 17.3605 140.446 17.2421C141.522 17.1297 142.549 17.5196 143.235 18.7022L144.965 17.6979ZM142.335 27.7875C143.432 26.5967 144.594 25.0276 145.241 23.3027C145.894 21.562 146.051 19.5719 144.965 17.6984L143.235 18.7016C143.929 19.8981 143.885 21.223 143.369 22.5999C142.846 23.9925 141.868 25.3434 140.864 26.4326L142.335 27.7875ZM139.341 30.3538C140.423 29.6187 141.435 28.7678 142.336 27.7866L140.864 26.4335C140.077 27.2895 139.185 28.0416 138.217 28.6994L139.341 30.3538ZM139.792 29.2503C139.737 29.1714 139.684 29.0894 139.632 29.0044L137.926 30.0488C137.997 30.1649 138.071 30.2787 138.148 30.3898L139.792 29.2503ZM143.39 31.982C141.894 31.1493 140.594 30.4056 139.791 29.2497L138.149 30.3903C139.262 31.9936 141.005 32.9436 142.417 33.7295L143.39 31.982ZM143.994 32.3205C143.793 32.2064 143.59 32.0933 143.39 31.982L142.417 33.7295C142.618 33.8416 142.814 33.9505 143.006 34.0596L143.994 32.3205ZM149.113 35.5952C147.472 34.3844 145.745 33.3127 143.993 32.3199L143.007 34.0601C144.715 35.0273 146.368 36.0557 147.926 37.2048L149.113 35.5952ZM156.324 42.7661C154.334 39.984 151.795 37.5643 149.112 35.594L147.928 37.2061C150.474 39.0754 152.852 41.3498 154.697 43.9296L156.324 42.7661ZM156.142 42.5724C155.109 41.7311 153.776 41.9562 152.958 42.5663C152.532 42.8834 152.169 43.353 152.033 43.9438C151.893 44.5574 152.023 45.1991 152.414 45.773L154.066 44.647C153.961 44.4919 153.977 44.4148 153.983 44.3909C153.993 44.3441 154.036 44.2572 154.153 44.1697C154.42 43.9705 154.72 43.9936 154.879 44.1233L156.142 42.5724ZM152.412 45.7701C152.417 45.7777 152.422 45.7854 152.427 45.7932L154.086 44.6758C154.08 44.6673 154.074 44.6586 154.068 44.65L152.412 45.7701ZM143.748 37.9867C147.109 40.0989 150.243 42.6149 152.432 45.8009L154.081 44.6681C151.673 41.1647 148.284 38.4756 144.812 36.2934L143.748 37.9867ZM141.853 36.8523C142.498 37.2289 143.13 37.5981 143.747 37.9864L144.813 36.2936C144.163 35.8848 143.502 35.4991 142.862 35.1252L141.853 36.8523ZM135.385 31.5265C136.992 34.0346 139.532 35.4962 141.853 36.8523L142.862 35.1252C140.46 33.7223 138.373 32.482 137.069 30.4475L135.385 31.5265ZM133.944 32.9961C134.863 32.6814 135.774 32.3142 136.66 31.8884L135.794 30.0857C134.985 30.4744 134.148 30.8124 133.296 31.1039L133.944 32.9961ZM155.057 57.724C154.946 58.1392 154.809 58.549 154.644 58.9519L156.496 59.7082C156.693 59.2255 156.857 58.7356 156.989 58.241L155.057 57.724ZM154.644 58.9524C153.271 62.3173 149.709 65.0139 146.157 64.731L145.998 66.7247C150.615 67.0923 154.875 63.6812 156.496 59.7077L154.644 58.9524ZM154.662 58.9174C153.306 62.2932 149.713 65.0246 146.16 64.7312L145.995 66.7244C150.622 67.1064 154.916 63.6507 156.518 59.6627L154.662 58.9174ZM155.057 57.7253C154.95 58.1275 154.818 58.5259 154.661 58.9193L156.519 59.6607C156.706 59.1919 156.862 58.7176 156.989 58.2396L155.057 57.7253ZM144.249 64.8629C143.592 65.1313 143.06 65.6676 142.831 66.4479L144.749 67.0122C144.778 66.9132 144.818 66.8543 144.852 66.8168C144.888 66.7782 144.936 66.7428 145.005 66.7145L144.249 64.8629ZM142.828 66.4553C142.646 67.0952 142.77 67.7915 143.053 68.3345C143.339 68.8828 143.882 69.4476 144.692 69.569L144.988 67.5911C144.988 67.5911 144.974 67.5901 144.945 67.5658C144.912 67.5388 144.868 67.4886 144.827 67.4106C144.786 67.333 144.759 67.246 144.748 67.1638C144.737 67.08 144.745 67.0259 144.751 67.0048L142.828 66.4553ZM144.702 69.5704C147.105 69.9056 149.392 69.5643 151.437 68.7143L150.669 66.8674C148.943 67.585 147.016 67.8738 144.978 67.5896L144.702 69.5704ZM144.71 69.5702C147.039 69.8992 149.343 69.5638 151.429 68.7175L150.677 66.8642C148.896 67.5868 146.947 67.8664 144.99 67.5898L144.71 69.5702ZM142.838 66.4553C142.656 67.0952 142.78 67.7915 143.063 68.3344C143.349 68.8828 143.892 69.4475 144.702 69.5689L144.998 67.5911C144.998 67.591 144.984 67.5901 144.955 67.5657C144.922 67.5388 144.878 67.4886 144.837 67.4106C144.797 67.333 144.769 67.2459 144.758 67.1638C144.747 67.08 144.755 67.0259 144.762 67.0047L142.838 66.4553ZM144.241 64.8664C143.589 65.1397 143.067 65.6781 142.841 66.4478L144.759 67.0122C144.811 66.8376 144.9 66.7588 145.014 66.711L144.241 64.8664ZM160.388 55.5499C160.555 52.4444 159.895 49.5158 158.685 46.8353L156.862 47.6577C157.958 50.0857 158.538 52.6967 158.391 55.4429L160.388 55.5499ZM160.389 55.5396C160.518 52.5644 159.871 49.5773 158.692 46.8496L156.856 47.6434C157.933 50.1342 158.505 52.821 158.391 55.4531L160.389 55.5396ZM140.032 22.5855C139.283 23.8341 138.278 24.9017 137.106 25.7963L138.32 27.3859C139.662 26.361 140.85 25.1106 141.747 23.6145L140.032 22.5855ZM140.531 20.0496C140.738 20.3558 140.782 20.6881 140.691 21.11C140.593 21.5633 140.349 22.0585 140.032 22.5855L141.747 23.6145C142.091 23.0415 142.477 22.3168 142.646 21.5326C142.822 20.717 142.772 19.7943 142.189 18.9304L140.531 20.0496ZM139.702 20.8903C139.882 20.6562 140.23 20.3805 140.545 20.2499C140.7 20.1852 140.768 20.19 140.756 20.1889C140.704 20.1842 140.592 20.1411 140.528 20.0447L142.192 18.9353C141.878 18.464 141.406 18.2396 140.937 18.1971C140.508 18.1582 140.101 18.2686 139.778 18.4027C139.135 18.6696 138.507 19.1638 138.118 19.6698L139.702 20.8903ZM138.698 26.4167C138.335 24.3651 138.674 22.2148 139.7 20.8931L138.12 19.667C136.633 21.5832 136.305 24.3736 136.729 26.7654L138.698 26.4167Z" fill="#002BFF" mask="url(#path-17-inside-1_875_27019)"/>
<circle cx="81" cy="42" r="1" fill="#18191B"/>
<circle cx="81" cy="47" r="1" fill="#18191B"/>
<circle cx="81" cy="52" r="1" fill="#18191B"/>
<circle cx="81" cy="57" r="1" fill="#18191B"/>
<circle cx="81" cy="62" r="1" fill="#18191B"/>
</g>
<defs>
<clipPath id="clip0_875_27019">
<rect width="130.42" height="72.33" fill="white" transform="translate(29 12)"/>
</clipPath>
</defs>
</svg>
