<svg viewBox="0 0 200 90" fill="none" xmlns="http://www.w3.org/2000/svg">
<g clip-path="url(#clip0_875_27111)">
<path d="M50.3432 16.6623L102.709 12.5655C104.085 12.4578 105.288 13.4864 105.396 14.863L108.617 56.0382L51.2671 60.525L48.0457 19.3498C47.938 17.9732 48.9667 16.77 50.3432 16.6623Z" fill="#FF0062" stroke="#FF0062"/>
<path d="M50.8413 61.5225L142.472 54.357" stroke="black" stroke-width="1.5" stroke-miterlimit="10"/>
<path d="M142.472 54.357L113.202 56.6471L110.286 19.3971C110.214 18.4757 110.903 17.6795 111.815 17.608L127.703 16.3645C128.24 16.3198 128.767 16.5434 129.107 16.9549L139.323 29.1122C140.155 30.1051 140.665 31.3397 140.764 32.6278L142.472 54.357Z" stroke="black" stroke-width="1.5" stroke-miterlimit="10"/>
<path d="M80.0044 72.9462C87.6573 72.9462 93.8613 66.7423 93.8613 59.0893C93.8613 51.4364 87.6573 45.2324 80.0044 45.2324C72.3514 45.2324 66.1475 51.4364 66.1475 59.0893C66.1475 66.7423 72.3514 72.9462 80.0044 72.9462Z" stroke="black" stroke-width="1.5" stroke-miterlimit="10"/>
<path d="M128.222 69.1801C133.029 69.1801 136.926 65.2831 136.926 60.4759C136.926 55.6687 133.029 51.7717 128.222 51.7717C123.415 51.7717 119.518 55.6687 119.518 60.4759C119.518 65.2831 123.415 69.1801 128.222 69.1801Z" stroke="black" stroke-width="1.5" stroke-miterlimit="10"/>
<path d="M122.461 16.7671L123.973 36.1346C124.044 37.0918 124.885 37.7985 125.833 37.7269L141.068 36.5371" stroke="black" stroke-width="1.5" stroke-miterlimit="10"/>
<path d="M45.1163 47.8982L40.9565 46.0643" stroke="black" stroke-width="1.5" stroke-miterlimit="10"/>
<path d="M45.1163 55.6542L40.9565 57.4791" stroke="black" stroke-width="1.5" stroke-miterlimit="10"/>
<path d="M38.1475 51.718H45.1162" stroke="black" stroke-width="1.5" stroke-miterlimit="10"/>
<path d="M35.0654 76.6198L35.0649 76.6202C34.5801 77.0352 33.9774 76.9193 33.5816 76.5281C33.3862 76.3351 33.281 76.107 33.2711 75.9027C33.262 75.7165 33.3281 75.4982 33.5838 75.2811L33.5855 75.2796C33.69 75.19 33.7922 75.1028 33.8947 75.0153L33.8955 75.0146C33.9976 74.9274 34.1002 74.8398 34.2054 74.7497C37.9142 71.5835 42.147 69.2347 46.7885 67.6842L46.7887 67.6842C56.2258 64.5286 66.5292 64.6104 76.3523 65.9554L76.3523 65.9554C84.0619 67.0098 91.5111 69.0503 98.9861 71.2988C106.147 73.4582 113.561 74.908 121.074 75.1497C131.697 75.4921 142.545 73.3487 151.611 67.5103C154.85 65.4251 157.798 62.8828 160.292 59.9328L160.293 59.9318C162.12 57.7597 163.913 54.9015 164.828 52.4764L164.828 52.4752C165.051 51.8815 165.639 51.6848 166.18 51.8323C166.446 51.9049 166.648 52.0518 166.755 52.2241C166.853 52.3806 166.902 52.6043 166.782 52.9235C166.527 53.5905 166.243 54.2579 165.938 54.9059C162.844 61.4376 157.071 66.7109 150.849 70.3173C141.374 75.807 130.177 77.6966 119.289 77.0608L119.289 77.0608C111.68 76.6237 104.191 75.0139 96.8988 72.7426C89.5308 70.447 81.9691 68.5782 74.2685 67.6734C64.7995 66.5588 54.829 66.7224 45.7435 70.1622C43.3179 71.0756 40.8332 72.3434 38.5802 73.8657L38.5802 73.8657L38.576 73.8685C38.152 74.1613 37.7282 74.464 37.3046 74.7767C37.2481 74.8177 37.1946 74.8584 37.1455 74.8959C37.1347 74.9022 37.1277 74.9069 37.1269 74.9074C37.1177 74.9135 37.1104 74.9187 37.1089 74.9198L37.1087 74.9199L37.1001 74.9262C37.0894 74.9343 37.0385 74.9739 36.9712 75.0268L36.9712 75.0268L36.9677 75.0295L36.7427 75.2095L36.5177 75.3895L36.5177 75.3895L36.51 75.3959C36.0278 75.7977 35.5459 76.2093 35.0668 76.6185L35.0654 76.6198ZM37.1112 75.2089L37.2738 75.425L37.0933 75.5694C36.9956 75.4562 36.9232 75.318 36.9207 75.1854C36.9375 75.141 36.9643 75.0901 36.9864 75.0528C36.9871 75.0515 36.9879 75.0502 36.9886 75.049C36.989 75.0484 36.9893 75.0478 36.9896 75.0473L37.0435 75.1188L37.1112 75.2089ZM37.0864 74.937L37.0854 74.9377C37.0876 74.936 37.0886 74.9351 37.0864 74.937Z" fill="#FF0062" stroke="#FF0062"/>
<path d="M35.066 76.6192L35.0649 76.6202C34.58 77.0353 33.9777 76.919 33.5836 76.5277C33.3892 76.3346 33.2845 76.1061 33.2753 75.9005C33.267 75.7128 33.3346 75.4916 33.5934 75.2713C35.0715 74.023 36.541 72.8207 38.1426 71.7791L38.1428 71.779C44.0151 67.9561 50.9705 66.0924 57.9404 65.3874L57.9404 65.3874C71.2815 64.0374 84.9057 66.885 97.6506 70.8771L97.6521 70.8776C98.2506 71.063 98.448 71.6108 98.3016 72.1438C98.2291 72.4078 98.0782 72.6225 97.8911 72.7444C97.7169 72.8581 97.4767 72.9154 97.1496 72.8129L97.1489 72.8126C89.08 70.2967 80.7842 68.2767 72.328 67.4623C63.3174 66.5884 53.8896 66.9646 45.3181 70.3242C43.0225 71.2181 40.5891 72.4959 38.4381 73.9671C38.1148 74.1878 37.8021 74.4158 37.4948 74.6399C37.405 74.7054 37.3156 74.7706 37.2266 74.8352L37.2265 74.8351L37.22 74.84C37.1582 74.8863 37.1184 74.916 37.0936 74.9344C37.089 74.9374 37.0857 74.9397 37.0844 74.9406L37.0728 74.9488L37.0576 74.96L37.0442 74.9702L37.0357 74.9768C37.0345 74.9778 37.0258 74.9847 37.0156 74.9937C37.0126 74.9963 37.007 75.0013 37.0002 75.0079L36.9999 75.0082C36.9994 75.0086 36.9988 75.0092 36.998 75.01C36.9761 75.0275 36.9446 75.0525 36.9002 75.0875L36.8936 75.0928L36.8871 75.0983C36.7652 75.2014 36.6326 75.3057 36.4911 75.4168L36.4911 75.4168L36.4848 75.4219C36.1145 75.7227 35.7545 76.0307 35.3986 76.3352C35.2874 76.4303 35.1766 76.5251 35.066 76.6192ZM37.0409 74.9752C37.0407 74.9754 37.0405 74.9757 37.0402 74.9759L37.0424 74.974C37.0423 74.9741 37.0418 74.9745 37.0409 74.9752Z" fill="#002BFF" stroke="#002BFF"/>
</g>
<defs>
<clipPath id="clip0_875_27111">
<rect width="135.37" height="77.67" fill="white" transform="translate(32)"/>
</clipPath>
</defs>
</svg>
