<svg viewBox="0 0 60 60" fill="none" xmlns="http://www.w3.org/2000/svg">
<path d="M8.10889 38.344H29.3252" stroke="#FF0062" stroke-width="2" stroke-miterlimit="10"/>
<mask id="path-2-inside-1_882_20771" fill="white">
<path d="M18.8943 47.4004H8.10889V51.0001H52.9926V47.4004"/>
</mask>
<path d="M18.8943 47.4004H8.10889V51.0001H52.9926V47.4004" fill="#FF0062"/>
<path d="M8.10889 47.4004V46.4004H7.10889V47.4004H8.10889ZM8.10889 51.0001H7.10889V52.0001H8.10889V51.0001ZM52.9926 51.0001V52.0001H53.9926V51.0001H52.9926ZM18.8943 46.4004H8.10889V48.4004H18.8943V46.4004ZM7.10889 47.4004V51.0001H9.10889V47.4004H7.10889ZM8.10889 52.0001H52.9926V50.0001H8.10889V52.0001ZM53.9926 51.0001V47.4004H51.9926V51.0001H53.9926Z" fill="#FF0062" mask="url(#path-2-inside-1_882_20771)"/>
<path d="M35.6746 13.1247C35.8691 13.49 36.1066 13.8139 36.3819 14.0779C36.1061 14.3426 35.8689 14.6673 35.6745 15.0342C35.4803 14.6682 35.2436 14.3433 34.9683 14.0784C35.2436 13.8144 35.4803 13.4906 35.6746 13.1247Z" fill="#FF0062" stroke="#FF0062"/>
<path d="M27.5829 42.1938H9.85113C8.68963 42.1938 7.75439 41.2541 7.75439 40.087V10.8646C7.75439 9.69754 8.68963 8.75781 9.85113 8.75781H27.5829C28.7369 8.75781 29.6796 9.69754 29.6796 10.8646V40.087C29.6796 41.2541 28.7444 42.1938 27.5829 42.1938Z" stroke="black" stroke-width="2" stroke-miterlimit="10"/>
<path d="M19.4349 12.85C19.4349 13.2542 19.1095 13.5777 18.7131 13.5777C18.3166 13.5777 17.9912 13.2542 17.9912 12.85C17.9912 12.4459 18.3166 12.1223 18.7131 12.1223C19.1095 12.1223 19.4349 12.4459 19.4349 12.85Z" fill="#FF0062" stroke="#FF0062"/>
<path d="M30.102 20.7545H50.7903C51.5974 20.7545 52.246 21.4138 52.246 22.2172V46.6652H19.1055V42.1939" stroke="black" stroke-width="2" stroke-miterlimit="10"/>
<path d="M43.3608 24.4528L48.4443 29.5606" stroke="#002BFF" stroke-width="2" stroke-miterlimit="10" stroke-linecap="round"/>
<path d="M36.0977 25.4758L47.7353 37.1693" stroke="#002BFF" stroke-width="2" stroke-miterlimit="10" stroke-linecap="round"/>
<path d="M15.2588 16.2075L24.9279 25.9154" stroke="#002BFF" stroke-width="2" stroke-miterlimit="10" stroke-linecap="round"/>
<path d="M13.999 23.2935L25.3124 34.6611" stroke="#002BFF" stroke-width="2" stroke-miterlimit="10" stroke-linecap="round"/>
</svg>
