<svg viewBox="0 0 272 195" fill="none" xmlns="http://www.w3.org/2000/svg">
<path d="M70.0162 21.3205C67.5554 20.354 65.1726 21.694 63.8253 23.7259C62.4016 26.1578 61.7464 28.9535 61.9435 31.7549C62.0031 35.4997 63.2029 39.1402 65.3872 42.2037C67.5714 45.2671 70.6391 47.6118 74.1918 48.9332C80.3494 51.1958 87.3086 50.4489 93.533 48.9332C95.6263 48.417 94.7355 45.2427 92.6533 45.7479C87.5759 46.9891 82.1087 47.6811 76.9866 46.352C73.6482 45.5509 70.6749 43.6768 68.5353 41.025C68.0905 40.429 67.6851 39.8053 67.3216 39.1578C67.1435 38.8283 66.9764 38.4988 66.8094 38.1583C66.6573 37.8642 66.527 37.5595 66.4197 37.2467C66.1585 36.5487 65.9354 35.8374 65.7516 35.1159C65.6737 34.7644 65.5957 34.4239 65.54 34.0724C65.54 33.9077 65.4732 33.732 65.451 33.5672C65.4287 33.4024 65.451 33.2926 65.451 33.4903C65.451 33.688 65.451 33.3146 65.451 33.2706C65.2951 31.9277 65.2951 30.5716 65.451 29.2287C65.451 28.9321 65.451 29.4813 65.451 29.0969L65.5178 28.6576C65.5846 28.35 65.6514 28.0535 65.7293 27.7569C65.8073 27.4603 65.8741 27.2187 65.9632 26.9661C66.0522 26.7135 66.0634 26.7135 66.1079 26.5926C66.2527 26.1643 66.0411 26.6915 66.1079 26.4718C66.1747 26.2522 66.364 25.9446 66.5088 25.681L66.7315 25.3515C66.7315 25.2746 67.021 24.9451 66.854 25.1648C66.6869 25.3845 67.1212 24.8682 67.2325 24.7584L67.5332 24.5058C67.2882 24.7145 67.3216 24.6376 67.5332 24.5058L67.8227 24.352C67.9897 24.2422 67.4218 24.4618 67.8227 24.352L68.1011 24.2971C68.4685 24.1873 67.8561 24.2971 68.1011 24.2971C68.346 24.2971 68.8916 24.385 68.4351 24.2971C68.6862 24.3485 68.9322 24.4221 69.17 24.5168C69.5892 24.6305 70.0368 24.5796 70.4188 24.3748C70.8008 24.1701 71.0875 23.8273 71.2188 23.4184C71.3289 23.0036 71.2751 22.563 71.0684 22.1858C70.8617 21.8085 70.5175 21.5228 70.1053 21.3864L70.0162 21.3205Z" fill="#002BFF"/>
<path d="M32.5813 31.3006C34.1423 39.203 42.2001 43.883 49.7302 44.2885C59.0082 44.7817 69.0667 39.0824 72.4305 30.2594C73.6727 27.048 73.5298 22.7297 69.9131 21.1514C67.9674 20.3184 66.3075 23.1571 68.2532 23.9572C68.6755 24.0674 69.0537 24.304 69.3367 24.6353C69.6198 24.9665 69.7941 25.3764 69.8362 25.8095C69.9531 26.8844 69.806 27.9715 69.4074 28.977C68.1125 32.2023 65.8953 34.977 63.0316 36.9561C56.0951 42.0307 45.0032 43.0171 38.8472 36.167C37.3123 34.5703 36.2475 32.5834 35.7692 30.4238C35.3515 28.3523 32.1746 29.2291 32.5813 31.3006V31.3006Z" fill="#FF0062"/>
<path d="M154.318 25.3182L151.727 29.6364" stroke="black" stroke-width="1.5" stroke-miterlimit="10"/>
<path d="M153.455 33.9546L160.364 33.0909" stroke="black" stroke-width="1.5" stroke-miterlimit="10"/>
<path d="M148.273 29.6364L146.545 25.3182" stroke="black" stroke-width="1.5" stroke-miterlimit="10"/>
<path d="M209.504 29.1052C213.664 27.0097 218.426 26.1164 222.886 27.6384C226.572 28.9564 229.601 31.6313 231.34 35.1048C233.102 38.4636 233.501 42.3612 232.455 46.0011C231.139 50.4126 227.637 53.5558 223.533 55.4748C219.331 57.2659 214.842 58.3076 210.273 58.5518C205.4 58.9819 200.515 58.9929 195.631 59.0039C186.709 59.0039 176.962 58.629 168.476 61.9045C164.6 63.3061 161.216 65.7837 158.729 69.04C155.907 72.856 154.77 77.6314 154.424 82.2745C154.312 83.7744 154.301 85.2632 154.335 86.7631C154.39 88.8917 157.736 88.9027 157.68 86.7631C157.558 81.7451 158.059 76.4513 160.725 72.0619C162.74 68.8537 165.782 66.4041 169.368 65.1028C178.066 61.7391 188.036 62.3456 197.248 62.3125C206.928 62.3125 217.812 62.4669 226.533 57.6915C230.898 55.4125 234.185 51.5322 235.689 46.8834C236.589 43.6693 236.588 40.2735 235.687 37.0598C234.785 33.8461 233.016 30.9355 230.57 28.6398C228.123 26.344 225.092 24.7496 221.799 24.0273C218.507 23.305 215.078 23.482 211.879 24.5393C210.471 24.9988 209.102 25.5705 207.787 26.2488C205.868 27.2193 207.552 30.0757 209.47 29.1052H209.504Z" fill="#002BFF"/>
<path d="M129.273 140.182V136.727" stroke="black" stroke-width="1.5" stroke-miterlimit="10"/>
<path d="M134.875 136.48C134.875 136.48 126.349 136.991 122.583 133.145C118.817 129.299 121.332 116.292 123.309 104.497C125.287 92.7024 132.137 92.5356 135.78 92.7135C139.948 92.9136 147.111 94.5255 147.424 111.89C147.424 111.89 151.067 112.201 150.855 114.791C150.642 117.381 147.424 117.837 147.424 117.837V140.182" stroke="black" stroke-width="1.5" stroke-miterlimit="10"/>
<path d="M61.9092 132.184C61.9092 132.184 130.497 150.597 209.591 131.545" stroke="black" stroke-width="1.5" stroke-miterlimit="10"/>
<path d="M42.2701 138.055C48.4533 138.055 99.791 118.187 109.686 113.225C115.227 110.433 117.11 107.474 116.024 106.239C114.939 105.004 100.256 108.097 100.256 108.097C100.256 108.097 115.559 102.824 115.094 100.309C114.407 96.6162 96.3892 102.167 96.3892 102.167C96.3892 102.167 114.119 96.1156 113.864 91.6101C113.609 87.1047 94.8378 95.9598 94.8378 95.9598C94.8378 95.9598 111.382 88.6955 110.927 84.5016C110.473 80.3077 97.6302 87.4496 97.6302 87.4496C97.6302 87.4496 88.3444 94.28 70.1053 96.1489C51.8662 98.0178 0.894127 102.668 1.45925 137.132C2.02438 171.595 67.6343 171.273 67.6343 171.273" stroke="black" stroke-width="1.5" stroke-miterlimit="10"/>
<path d="M82.6365 94.4091C83.947 93.4617 90.4778 88.6909 93.3192 82.6795C94.6188 79.9275 100.004 81.8674 97.5483 87.9466" stroke="black" stroke-width="1.5" stroke-miterlimit="10"/>
<path d="M230.056 138.088C223.876 138.088 172.561 118.22 162.67 113.258C157.132 110.466 155.261 107.507 156.335 106.272C157.409 105.037 172.107 108.13 172.107 108.13C172.107 108.13 156.8 102.857 157.265 100.343C157.952 96.6495 175.962 102.201 175.962 102.201C175.962 102.201 158.24 96.1489 158.506 91.6435C158.772 87.1381 177.512 95.9932 177.512 95.9932C177.512 95.9932 160.976 88.6955 161.441 84.5016C161.906 80.3077 174.732 87.4496 174.732 87.4496C174.732 87.4496 184.003 94.28 202.234 96.1489C220.465 98.0178 271.48 102.668 270.904 137.132C270.328 171.595 204.759 171.273 204.759 171.273" stroke="black" stroke-width="1.5" stroke-miterlimit="10"/>
<path d="M189.727 94.4091C188.427 93.4617 181.894 88.6909 179.04 82.6795C177.74 79.9275 172.353 81.8674 174.821 87.9466" stroke="black" stroke-width="1.5" stroke-miterlimit="10"/>
<path d="M124.955 98.5294H139.614C139.614 98.5294 138.746 111.764 147.395 112.545C147.395 112.545 148.252 94.2108 136.615 92.8382C134.313 92.4492 131.946 92.7901 129.852 93.8122C127.758 94.8343 126.044 96.4854 124.955 98.5294Z" fill="black"/>
<path d="M127.546 107.364C128.022 107.364 128.409 106.977 128.409 106.5C128.409 106.023 128.022 105.636 127.546 105.636C127.069 105.636 126.682 106.023 126.682 106.5C126.682 106.977 127.069 107.364 127.546 107.364Z" fill="black"/>
<path d="M135.318 107.364C135.795 107.364 136.182 106.977 136.182 106.5C136.182 106.023 135.795 105.636 135.318 105.636C134.841 105.636 134.455 106.023 134.455 106.5C134.455 106.977 134.841 107.364 135.318 107.364Z" fill="black"/>
<path d="M131.864 104.773L131 115.136" stroke="black" stroke-width="1.5" stroke-miterlimit="10"/>
<path d="M125.824 117.636C125.824 116.81 126.464 115.572 127.868 116.147C129.568 116.845 131.438 116.998 133.226 116.585C134.692 116.047 135.344 115.697 135.874 116.585C136.798 118.173 135.812 121.35 130.566 121.175C126.378 121.05 125.75 119.336 125.824 117.636Z" fill="black"/>
<path d="M127.73 116.864C127.73 116.864 131.401 118.659 134.151 117.074C134.151 117.074 134.368 118.462 134.454 118.651C133.378 119.219 132.177 119.495 130.967 119.45C129.757 119.405 128.579 119.042 127.545 118.396L127.73 116.864Z" fill="white"/>
<path d="M15.2727 116.864C11.6369 119.107 6.48171 130.637 7.67555 138.455" stroke="#FF0062" stroke-width="2" stroke-miterlimit="10"/>
<path d="M132.727 77.1364C144.652 77.1364 154.318 67.4698 154.318 55.5455C154.318 43.6212 144.652 33.9546 132.727 33.9546C120.803 33.9546 111.136 43.6212 111.136 55.5455C111.136 67.4698 120.803 77.1364 132.727 77.1364Z" stroke="black" stroke-width="1.5" stroke-miterlimit="10"/>
<path d="M124.091 57.2101L130.009 64.1818L140.5 45.1818" stroke="black" stroke-width="1.5" stroke-miterlimit="10"/>
</svg>
