<svg width="240" height="168" viewBox="0 0 240 168" fill="none" xmlns="http://www.w3.org/2000/svg">
<g clip-path="url(#clip0_5029_51077)">
<path d="M114.703 126.395V123.422" stroke="#18191B" stroke-width="1.291" stroke-miterlimit="10"/>
<path d="M119.525 123.209C119.525 123.209 112.187 123.649 108.946 120.339C105.704 117.028 107.868 105.834 109.571 95.6829C111.273 85.5315 117.169 85.388 120.304 85.5411C123.891 85.7133 130.056 87.1006 130.325 102.045C130.325 102.045 133.461 102.313 133.278 104.543C133.095 106.772 130.325 107.164 130.325 107.164V126.395" stroke="#18191B" stroke-width="1.291" stroke-miterlimit="10"/>
<path d="M56.7257 119.512C56.7257 119.512 115.757 135.36 183.83 118.962" stroke="#18191B" stroke-width="1.291" stroke-miterlimit="10"/>
<path d="M39.823 124.565C45.1446 124.565 89.3291 107.465 97.8456 103.195C102.614 100.791 104.235 98.2446 103.301 97.1818C102.366 96.1191 89.7297 98.7808 89.7297 98.7808C89.7297 98.7808 102.9 94.2425 102.5 92.0787C101.908 88.9 86.4013 93.6776 86.4013 93.6776C86.4013 93.6776 101.66 88.4691 101.441 84.5915C101.222 80.7138 85.0661 88.3351 85.0661 88.3351C85.0661 88.3351 99.3047 82.083 98.9137 78.4734C98.5227 74.8638 87.4694 81.0106 87.4694 81.0106C87.4694 81.0106 79.4775 86.8893 63.7797 88.4978C48.082 90.1063 4.21221 94.1085 4.69859 123.77C5.18497 153.432 61.653 153.154 61.653 153.154" stroke="#18191B" stroke-width="1.291" stroke-miterlimit="10"/>
<path d="M74.5649 87.0005C75.6929 86.1851 81.3137 82.079 83.7592 76.9052C84.8777 74.5367 89.5127 76.2063 87.399 81.4384" stroke="#18191B" stroke-width="1.291" stroke-miterlimit="10"/>
<path d="M201.444 124.593C196.125 124.593 151.96 107.494 143.447 103.223C138.681 100.82 137.07 98.2733 137.995 97.2106C138.919 96.1478 151.569 98.8095 151.569 98.8095C151.569 98.8095 138.395 94.2712 138.795 92.1074C139.386 88.9287 154.886 93.7063 154.886 93.7063C154.886 93.7063 139.634 88.4978 139.863 84.6202C140.092 80.7425 156.221 88.3638 156.221 88.3638C156.221 88.3638 141.989 82.083 142.389 78.4734C142.79 74.8638 153.828 81.0106 153.828 81.0106C153.828 81.0106 161.807 86.8893 177.498 88.4978C193.189 90.1063 237.096 94.1085 236.6 123.77C236.104 153.432 179.671 153.154 179.671 153.154" stroke="#18191B" stroke-width="1.291" stroke-miterlimit="10"/>
<path d="M166.734 87.0005C165.615 86.1851 159.992 82.079 157.536 76.9052C156.417 74.5367 151.781 76.2063 153.905 81.4384" stroke="#18191B" stroke-width="1.291" stroke-miterlimit="10"/>
<path d="M110.987 90.5466H123.604C123.604 90.5466 122.856 101.937 130.3 102.61C130.3 102.61 131.038 86.8298 121.022 85.6484C119.041 85.3136 117.004 85.607 115.201 86.4867C113.399 87.3664 111.924 88.7874 110.987 90.5466Z" fill="#18191B"/>
<path d="M113.216 98.1499C113.627 98.1499 113.96 97.8171 113.96 97.4066C113.96 96.9961 113.627 96.6633 113.216 96.6633C112.806 96.6633 112.473 96.9961 112.473 97.4066C112.473 97.8171 112.806 98.1499 113.216 98.1499Z" fill="#18191B"/>
<path d="M119.906 98.1499C120.317 98.1499 120.649 97.8171 120.649 97.4066C120.649 96.9961 120.317 96.6633 119.906 96.6633C119.496 96.6633 119.163 96.9961 119.163 97.4066C119.163 97.8171 119.496 98.1499 119.906 98.1499Z" fill="#18191B"/>
<path d="M116.933 95.92L116.19 104.84" stroke="#18191B" stroke-width="1.291" stroke-miterlimit="10"/>
<path d="M120.488 108.482C120.488 108.756 119.956 109.168 118.79 108.977C117.379 108.745 115.826 108.694 114.341 108.831C113.124 109.01 112.582 109.126 112.142 108.831C111.375 108.304 112.193 107.248 116.55 107.307C120.028 107.348 120.55 107.917 120.488 108.482Z" fill="#18191B"/>
<path d="M16.5874 106.326C13.4582 108.257 9.0213 118.18 10.0488 124.909" stroke="#FF0062" stroke-width="1.72133" stroke-miterlimit="10"/>
<path d="M64.955 22.3745C62.8371 21.5426 60.7862 22.6959 59.6267 24.4447C58.4014 26.5377 57.8374 28.9438 58.0071 31.3549C58.0584 34.5779 59.091 37.7112 60.9709 40.3478C62.8508 42.9844 65.4911 45.0024 68.5487 46.1396C73.8483 48.087 79.8379 47.4442 85.195 46.1396C86.9967 45.6953 86.23 42.9634 84.4379 43.3982C80.0679 44.4664 75.3625 45.062 70.9542 43.9181C68.0809 43.2286 65.5219 41.6157 63.6804 39.3334C63.2976 38.8204 62.9487 38.2836 62.6358 37.7263C62.4825 37.4428 62.3387 37.1592 62.195 36.8661C62.064 36.6129 61.9519 36.3507 61.8596 36.0815C61.6347 35.4808 61.4428 34.8686 61.2846 34.2476C61.2175 33.9451 61.1504 33.652 61.1025 33.3495C61.1025 33.2077 61.045 33.0565 61.0258 32.9147C61.0067 32.7729 61.0258 32.6784 61.0258 32.8485C61.0258 33.0187 61.0258 32.6973 61.0258 32.6595C60.8917 31.5037 60.8917 30.3365 61.0258 29.1807C61.0258 28.9255 61.0258 29.3981 61.0258 29.0673L61.0833 28.6891C61.1408 28.4245 61.1983 28.1692 61.2654 27.914C61.3325 27.6588 61.39 27.4508 61.4667 27.2334C61.5433 27.0159 61.5529 27.0159 61.5912 26.912C61.7158 26.5433 61.5337 26.997 61.5912 26.808C61.6487 26.6189 61.8117 26.3542 61.9362 26.1274L62.1279 25.8438C62.1279 25.7776 62.3771 25.494 62.2333 25.6831C62.0896 25.8721 62.4633 25.4278 62.5592 25.3333L62.8179 25.1159C62.6071 25.2955 62.6358 25.2293 62.8179 25.1159L63.0671 24.9835C62.7221 25.0781 63.2108 24.889 63.0671 24.9835L63.3067 24.9363C63.0958 24.9363 63.6229 24.8417 63.3067 24.9363C63.5175 24.9363 63.9871 25.0119 63.5942 24.9363C63.8103 24.9805 64.022 25.0438 64.2267 25.1253C64.5875 25.2232 64.9727 25.1794 65.3014 25.0032C65.6302 24.8269 65.877 24.5319 65.99 24.18C66.0847 23.823 66.0385 23.4438 65.8606 23.1191C65.6827 22.7944 65.3864 22.5486 65.0317 22.4312L64.955 22.3745Z" fill="#002BFF"/>
<path d="M32.7362 30.9639C34.0797 37.7652 41.0147 41.7931 47.4956 42.1422C55.4809 42.5666 64.1378 37.6614 67.033 30.0678C68.1021 27.3039 67.9791 23.5873 64.8663 22.2289C63.1917 21.512 61.7631 23.9551 63.4377 24.6438C63.8011 24.7386 64.1266 24.9422 64.3703 25.2273C64.6139 25.5124 64.7639 25.8652 64.8001 26.238C64.9008 27.1631 64.7741 28.0987 64.4311 28.9641C63.3166 31.74 61.4084 34.128 58.9437 35.8314C52.9737 40.1989 43.4273 41.0479 38.1291 35.1522C36.808 33.778 35.8915 32.068 35.4799 30.2093C35.1204 28.4264 32.3861 29.1811 32.7362 30.9639Z" fill="#FF0062"/>
<path d="M185.007 29.0743C188.587 27.2708 192.686 26.502 196.525 27.8119C199.697 28.9462 202.304 31.2485 203.8 34.238C205.317 37.1287 205.661 40.4833 204.76 43.616C203.628 47.4128 200.614 50.118 197.082 51.7696C193.465 53.3112 189.602 54.2077 185.669 54.4179C181.475 54.7881 177.271 54.7976 173.067 54.8071C165.389 54.8071 157 54.4843 149.696 57.3035C146.36 58.5098 143.447 60.6422 141.307 63.4448C138.878 66.729 137.899 70.839 137.602 74.8352C137.506 76.1261 137.496 77.4075 137.525 78.6984C137.573 80.5303 140.452 80.5398 140.404 78.6984C140.299 74.3795 140.731 69.8234 143.025 66.0456C144.759 63.2844 147.378 61.1761 150.463 60.0561C157.95 57.1611 166.531 57.6831 174.459 57.6547C182.79 57.6547 192.158 57.7876 199.664 53.6775C203.42 51.7161 206.249 48.3764 207.544 44.3754C208.318 41.6091 208.318 38.6865 207.542 35.9206C206.766 33.1546 205.243 30.6496 203.138 28.6737C201.032 26.6979 198.423 25.3256 195.589 24.704C192.756 24.0823 189.804 24.2346 187.052 25.1446C185.839 25.5401 184.661 26.0321 183.529 26.6159C181.878 27.4512 183.327 29.9096 184.978 29.0743H185.007Z" fill="#002BFF"/>
<path d="M118.928 70.4131C129.191 70.4131 137.511 62.0935 137.511 51.8306C137.511 41.5678 129.191 33.2481 118.928 33.2481C108.666 33.2481 100.346 41.5678 100.346 51.8306C100.346 62.0935 108.666 70.4131 118.928 70.4131Z" stroke="#18191B" stroke-width="1.291" stroke-miterlimit="10"/>
<circle cx="114" cy="57" r="1" fill="#18191B"/>
<circle cx="119" cy="57" r="1" fill="#18191B"/>
<circle cx="124" cy="57" r="1" fill="#18191B"/>
</g>
<defs>
<clipPath id="clip0_5029_51077">
<rect width="234.1" height="142.87" fill="white" transform="translate(3.44275 12.6313)"/>
</clipPath>
</defs>
</svg>
