<svg width="56" height="56" viewBox="0 0 56 56" fill="none" xmlns="http://www.w3.org/2000/svg">
<rect width="56" height="56" rx="28" fill="#FDE8E8"/>
<path d="M28 37C32.9706 37 37 32.9706 37 28C37 23.0294 32.9706 19 28 19C23.0294 19 19 23.0294 19 28C19 32.9706 23.0294 37 28 37Z" stroke="#E61919" stroke-width="1.5" stroke-miterlimit="10"/>
<path d="M28 23.5V28.75" stroke="#E61919" stroke-width="1.5" stroke-linecap="round" stroke-linejoin="round"/>
<path d="M28.375 32.125C28.375 32.3321 28.2071 32.5 28 32.5C27.7929 32.5 27.625 32.3321 27.625 32.125C27.625 31.9179 27.7929 31.75 28 31.75C28.2071 31.75 28.375 31.9179 28.375 32.125Z" fill="#E61919" stroke="#E61919" stroke-width="1.5"/>
</svg>
