<svg viewBox="0 0 272 166" fill="none" xmlns="http://www.w3.org/2000/svg">
<path d="M129.273 132.182V128.727" stroke="black" stroke-width="1.5" stroke-miterlimit="10"/>
<path d="M134.875 128.48C134.875 128.48 126.349 128.991 122.583 125.145C118.817 121.299 121.332 108.292 123.309 96.4972C125.287 84.7024 132.137 84.5356 135.78 84.7135C139.948 84.9136 147.111 86.5255 147.424 103.89C147.424 103.89 151.067 104.201 150.855 106.791C150.642 109.381 147.424 109.837 147.424 109.837V132.182" stroke="black" stroke-width="1.5" stroke-miterlimit="10"/>
<path d="M61.9092 124.184C61.9092 124.184 130.497 142.597 209.591 123.545" stroke="black" stroke-width="1.5" stroke-miterlimit="10"/>
<path d="M42.2701 130.055C48.4533 130.055 99.791 110.187 109.686 105.225C115.227 102.433 117.11 99.4737 116.024 98.2388C114.939 97.004 100.256 100.097 100.256 100.097C100.256 100.097 115.559 94.8236 115.094 92.3095C114.407 88.6162 96.3892 94.1673 96.3892 94.1673C96.3892 94.1673 114.119 88.1156 113.864 83.6101C113.609 79.1047 94.8378 87.9598 94.8378 87.9598C94.8378 87.9598 111.382 80.6955 110.927 76.5016C110.473 72.3077 97.6302 79.4496 97.6302 79.4496C97.6302 79.4496 88.3444 86.28 70.1053 88.1489C51.8662 90.0178 0.894127 94.6679 1.45925 129.132C2.02438 163.595 67.6343 163.273 67.6343 163.273" stroke="black" stroke-width="1.5" stroke-miterlimit="10"/>
<path d="M82.6365 86.4091C83.947 85.4617 90.4778 80.6909 93.3192 74.6795C94.6188 71.9275 100.004 73.8674 97.5483 79.9466" stroke="black" stroke-width="1.5" stroke-miterlimit="10"/>
<path d="M230.056 130.088C223.876 130.088 172.561 110.22 162.67 105.258C157.132 102.466 155.261 99.507 156.335 98.2722C157.409 97.0374 172.107 100.13 172.107 100.13C172.107 100.13 156.8 94.857 157.265 92.3429C157.952 88.6495 175.962 94.2007 175.962 94.2007C175.962 94.2007 158.24 88.1489 158.506 83.6435C158.772 79.1381 177.512 87.9932 177.512 87.9932C177.512 87.9932 160.976 80.6955 161.441 76.5016C161.906 72.3077 174.732 79.4496 174.732 79.4496C174.732 79.4496 184.003 86.28 202.234 88.1489C220.465 90.0178 271.48 94.6679 270.904 129.132C270.328 163.595 204.759 163.273 204.759 163.273" stroke="black" stroke-width="1.5" stroke-miterlimit="10"/>
<path d="M189.727 86.4091C188.427 85.4617 181.894 80.6909 179.04 74.6795C177.74 71.9275 172.353 73.8674 174.821 79.9466" stroke="black" stroke-width="1.5" stroke-miterlimit="10"/>
<path d="M124.955 90.5294H139.614C139.614 90.5294 138.746 103.764 147.395 104.545C147.395 104.545 148.252 86.2108 136.615 84.8382C134.313 84.4492 131.946 84.7901 129.852 85.8122C127.758 86.8343 126.044 88.4854 124.955 90.5294Z" fill="black"/>
<path d="M127.546 99.3636C128.022 99.3636 128.409 98.977 128.409 98.5C128.409 98.023 128.022 97.6364 127.546 97.6364C127.069 97.6364 126.682 98.023 126.682 98.5C126.682 98.977 127.069 99.3636 127.546 99.3636Z" fill="black"/>
<path d="M135.318 99.3636C135.795 99.3636 136.182 98.977 136.182 98.5C136.182 98.023 135.795 97.6364 135.318 97.6364C134.841 97.6364 134.455 98.023 134.455 98.5C134.455 98.977 134.841 99.3636 135.318 99.3636Z" fill="black"/>
<path d="M131.864 96.7727L131 107.136" stroke="black" stroke-width="1.5" stroke-miterlimit="10"/>
<path d="M135.995 111.369C135.995 111.687 135.377 112.165 134.022 111.943C132.382 111.674 130.577 111.615 128.852 111.774C127.438 111.982 126.808 112.117 126.297 111.774C125.406 111.161 126.356 109.935 131.419 110.003C135.46 110.051 136.066 110.712 135.995 111.369Z" fill="black"/>
<path d="M15.2727 108.864C11.6369 111.107 6.48171 122.637 7.67555 130.455" stroke="#FF0062" stroke-width="2" stroke-miterlimit="10"/>
<path d="M71.4708 11.3205C69.01 10.354 66.6272 11.694 65.2799 13.7259C63.8562 16.1578 63.201 18.9535 63.3981 21.7549C63.4577 25.4997 64.6575 29.1402 66.8418 32.2037C69.026 35.2671 72.0937 37.6118 75.6464 38.9332C81.8039 41.1958 88.7632 40.4489 94.9876 38.9332C97.0809 38.417 96.1901 35.2427 94.1079 35.7479C89.0304 36.9891 83.5632 37.6811 78.4412 36.352C75.1028 35.5509 72.1295 33.6768 69.9899 31.025C69.5451 30.429 69.1397 29.8053 68.7762 29.1578C68.598 28.8283 68.431 28.4988 68.264 28.1583C68.1119 27.8642 67.9816 27.5595 67.8743 27.2467C67.613 26.5487 67.39 25.8374 67.2062 25.1159C67.1282 24.7644 67.0503 24.4239 66.9946 24.0724C66.9946 23.9077 66.9278 23.732 66.9056 23.5672C66.8833 23.4024 66.9056 23.2926 66.9056 23.4903C66.9056 23.688 66.9056 23.3146 66.9056 23.2706C66.7497 21.9277 66.7497 20.5716 66.9056 19.2287C66.9056 18.9321 66.9056 19.4813 66.9056 19.0969L66.9724 18.6576C67.0392 18.35 67.106 18.0535 67.1839 17.7569C67.2619 17.4603 67.3287 17.2187 67.4178 16.9661C67.5068 16.7135 67.518 16.7135 67.5625 16.5926C67.7073 16.1643 67.4957 16.6915 67.5625 16.4718C67.6293 16.2522 67.8186 15.9446 67.9634 15.681L68.1861 15.3515C68.1861 15.2746 68.4756 14.9451 68.3085 15.1648C68.1415 15.3845 68.5758 14.8682 68.6871 14.7584L68.9878 14.5058C68.7428 14.7145 68.7762 14.6376 68.9878 14.5058L69.2773 14.352C69.4443 14.2422 68.8764 14.4618 69.2773 14.352L69.5556 14.2971C69.9231 14.1873 69.3107 14.2971 69.5556 14.2971C69.8006 14.2971 70.3462 14.385 69.8897 14.2971C70.1408 14.3485 70.3868 14.4221 70.6246 14.5168C71.0438 14.6305 71.4914 14.5796 71.8734 14.3748C72.2554 14.1701 72.5421 13.8273 72.6734 13.4184C72.7835 13.0036 72.7297 12.563 72.523 12.1858C72.3163 11.8085 71.9721 11.5228 71.5599 11.3864L71.4708 11.3205Z" fill="#002BFF"/>
<path d="M34.0359 21.3006C35.5969 29.203 43.6546 33.883 51.1848 34.2885C60.4628 34.7817 70.5213 29.0824 73.8851 20.2594C75.1273 17.048 74.9844 12.7297 71.3677 11.1514C69.422 10.3184 67.762 13.1571 69.7078 13.9572C70.13 14.0674 70.5082 14.304 70.7913 14.6353C71.0744 14.9665 71.2487 15.3764 71.2908 15.8095C71.4077 16.8844 71.2605 17.9715 70.862 18.977C69.5671 22.2023 67.3499 24.977 64.4862 26.9561C57.5497 32.0307 46.4578 33.0171 40.3018 26.167C38.7669 24.5703 37.7021 22.5834 37.2238 20.4238C36.8061 18.3523 33.6291 19.2291 34.0359 21.3006Z" fill="#FF0062"/>
<path d="M155.773 15.3184L153.182 19.6365" stroke="black" stroke-width="1.5" stroke-miterlimit="10"/>
<path d="M154.909 23.9545L161.818 23.0908" stroke="black" stroke-width="1.5" stroke-miterlimit="10"/>
<path d="M149.727 19.6365L148 15.3184" stroke="black" stroke-width="1.5" stroke-miterlimit="10"/>
<path d="M210.959 19.1051C215.119 17.0096 219.88 16.1163 224.341 17.6383C228.027 18.9562 231.055 21.6312 232.795 25.1047C234.557 28.4635 234.956 32.3611 233.91 36.001C232.594 40.4125 229.092 43.5557 224.988 45.4746C220.786 47.2657 216.297 48.3075 211.728 48.5516C206.855 48.9818 201.97 48.9928 197.086 49.0038C188.164 49.0038 178.417 48.6288 169.93 51.9044C166.055 53.306 162.671 55.7836 160.183 59.0399C157.362 62.8558 156.224 67.6313 155.879 72.2743C155.767 73.7742 155.756 75.2631 155.79 76.763C155.845 78.8915 159.191 78.9026 159.135 76.763C159.012 71.745 159.514 66.4512 162.18 62.0618C164.195 58.8536 167.237 56.404 170.823 55.1027C179.521 51.7389 189.491 52.3455 198.703 52.3124C208.383 52.3124 219.267 52.4668 227.988 47.6914C232.353 45.4124 235.64 41.5321 237.144 36.8833C238.044 33.6692 238.043 30.2734 237.142 27.0597C236.24 23.846 234.471 20.9354 232.025 18.6396C229.578 16.3439 226.547 14.7495 223.254 14.0272C219.962 13.3049 216.533 13.4819 213.334 14.5392C211.925 14.9987 210.557 15.5704 209.241 16.2486C207.323 17.2192 209.007 20.0756 210.925 19.1051H210.959Z" fill="#002BFF"/>
<path d="M134.182 67.1364C146.107 67.1364 155.773 57.4698 155.773 45.5455C155.773 33.6212 146.107 23.9546 134.182 23.9546C122.258 23.9546 112.591 33.6212 112.591 45.5455C112.591 57.4698 122.258 67.1364 134.182 67.1364Z" stroke="black" stroke-width="1.5" stroke-miterlimit="10"/>
<path d="M125 57L142 35" stroke="black" stroke-width="1.5" stroke-miterlimit="10"/>
<path d="M141.925 57.0574L125.075 34.9426" stroke="black" stroke-width="1.5" stroke-miterlimit="10"/>
</svg>
