<svg viewBox="0 0 200 90" fill="none" xmlns="http://www.w3.org/2000/svg">
<path d="M33.5055 37.0701L33.5068 37.0697C36.6881 36.1191 40.0375 36.8495 42.4919 39.1056C43.8173 40.321 44.8121 41.8261 45.6858 43.3662C46.0636 44.0321 46.4226 44.7118 46.7754 45.3798C46.8307 45.4844 46.8858 45.5888 46.9409 45.6928C47.3489 46.4639 47.7523 47.2158 48.1798 47.9296L48.1802 47.9302C49.811 50.6619 51.7223 53.2153 54.5272 54.5702L54.5277 54.5705C57.9032 56.206 61.768 55.2185 65.0915 53.4998L33.5055 37.0701ZM33.5055 37.0701C32.8922 37.2552 32.3565 36.9037 32.13 36.3886C32.0188 36.1359 32.0088 35.8934 32.074 35.7137C32.1323 35.5528 32.2713 35.382 32.6007 35.2845L32.6018 35.2842C35.5139 34.4158 38.5688 34.4432 41.258 35.8334C44.56 37.5485 46.4223 40.6701 48.2298 43.9744C48.3593 44.2116 48.4895 44.4525 48.6212 44.696C49.9613 47.1752 51.4451 49.92 53.7676 51.7559C57.1312 54.4192 61.0575 53.3446 64.3509 51.6405L64.3527 51.6396M33.5055 37.0701L64.3527 51.6396M64.3527 51.6396C64.6555 51.4814 64.8912 51.4999 65.0686 51.5794M64.3527 51.6396L65.0686 51.5794M65.0686 51.5794C65.2615 51.6657 65.4383 51.8496 65.5479 52.1013M65.0686 51.5794L65.5479 52.1013M65.5479 52.1013C65.7698 52.6106 65.6575 53.2064 65.0919 53.4997L65.5479 52.1013Z" fill="#002BFF" stroke="#002BFF"/>
<path d="M100.426 30.1797L103.031 38.6078C103.225 39.2362 103.806 39.6648 104.464 39.6648H112.983C113.462 39.6648 113.667 40.2719 113.287 40.5622L106.3 45.8965C105.8 46.2781 105.591 46.931 105.777 47.5318L108.424 56.0972C108.568 56.5624 108.03 56.9378 107.643 56.6421L100.859 51.4553C100.322 51.0444 99.5755 51.0441 99.0377 51.4547L92.238 56.6459C91.8511 56.9413 91.3131 56.5659 91.4569 56.1008L94.1055 47.5318C94.2912 46.931 94.0825 46.2781 93.5827 45.8965L86.5955 40.5622C86.2153 40.2719 86.4206 39.6648 86.8989 39.6648H95.4325C96.0903 39.6648 96.6714 39.2362 96.8656 38.6078L99.4707 30.1797C99.6159 29.7099 100.281 29.7099 100.426 30.1797Z" fill="#FF0062" stroke="#FF0062"/>
<path d="M63.5812 27.5545L64.7321 29.2052C64.8179 29.3283 64.9739 29.3812 65.1168 29.3355L66.9681 28.7444C67.0721 28.7113 67.1588 28.8289 67.0963 28.9184L65.9481 30.5624C65.8659 30.68 65.8659 30.8363 65.9479 30.954L67.1175 32.6317C67.181 32.7228 67.0901 32.8417 66.9855 32.8043L65.1514 32.1479C65.0061 32.0958 64.844 32.1476 64.7556 32.2741L63.6381 33.874C63.5745 33.965 63.4316 33.9207 63.4306 33.8097L63.4116 31.7638C63.4103 31.6203 63.3196 31.493 63.1845 31.4447L61.296 30.7703C61.1933 30.7336 61.1958 30.5874 61.2997 30.5542L63.1542 29.9621C63.2971 29.9165 63.3936 29.7831 63.3922 29.633L63.3736 27.6208C63.3726 27.5086 63.5171 27.4625 63.5812 27.5545Z" fill="#FF0062" stroke="#FF0062" stroke-width="0.228118"/>
<path d="M169.582 18.5611L169.89 21.9713C169.913 22.2256 170.099 22.4352 170.349 22.4884L173.583 23.1764C173.765 23.2151 173.794 23.4621 173.626 23.5416L170.542 25.0026C170.322 25.1071 170.19 25.3381 170.212 25.5812L170.525 29.047C170.542 29.2352 170.307 29.3343 170.184 29.1908L168.028 26.6736C167.857 26.4742 167.574 26.4138 167.336 26.5263L164.335 27.948C164.165 28.0289 163.991 27.8429 164.083 27.678L165.78 24.6385C165.9 24.4254 165.873 24.1607 165.714 23.9755L163.492 21.3859C163.371 21.245 163.498 21.031 163.68 21.0697L166.92 21.7589C167.169 21.812 167.425 21.6962 167.549 21.4733L169.219 18.4839C169.312 18.3173 169.564 18.371 169.582 18.5611Z" fill="#FF0062" stroke="#FF0062" stroke-width="0.38816"/>
<path d="M117.971 61.9707C121.04 58.9017 123.275 55.1001 124.464 50.9259C125.653 46.7517 125.756 42.3431 124.765 38.1176C123.774 33.8921 121.72 29.9896 118.799 26.7796C115.878 23.5697 112.185 21.1585 108.072 19.7745C103.958 18.3906 99.5593 18.0795 95.2919 18.871C91.0244 19.6624 87.0296 21.53 83.6858 24.297C80.342 27.064 77.7598 30.6388 76.1839 34.6828C74.6079 38.7268 74.0903 43.1061 74.6801 47.4061" stroke="#002BFF" stroke-width="3" stroke-linecap="round"/>
<path d="M81.9116 25.9115C79.544 28.2792 77.6658 31.0901 76.3844 34.1836C75.1031 37.2771 74.4436 40.5927 74.4436 43.9411C74.4436 47.2895 75.1031 50.6051 76.3844 53.6986C77.6658 56.7921 79.544 59.603 81.9116 61.9707" stroke="#FF0062" stroke-width="3" stroke-linecap="round"/>
<path d="M100.03 66.8422L100.747 67.0646C100.752 67.0472 100.757 67.0297 100.761 67.012L100.03 66.8422ZM95.8607 80.2744L95.2587 80.7218C95.4271 80.9484 95.7085 81.0612 95.9869 81.0137C96.2652 80.9662 96.4933 80.7664 96.577 80.4968L95.8607 80.2744ZM84.064 76.6124L83.3477 76.3901C83.2656 76.6546 83.3359 76.9428 83.5307 77.1398C83.7254 77.3367 84.0128 77.4103 84.2782 77.3312L84.064 76.6124ZM91.4936 74.3977L92.0956 73.9504C91.9076 73.6974 91.5815 73.5889 91.2794 73.679L91.4936 74.3977ZM115.745 76.7292L115.481 77.4312C115.748 77.5317 116.049 77.4718 116.258 77.2768C116.466 77.0818 116.546 76.7854 116.463 76.5122L115.745 76.7292ZM104.095 80.2519L103.377 80.4689C103.46 80.7422 103.69 80.9449 103.972 80.9917C104.254 81.0385 104.537 80.9213 104.704 80.6894L104.095 80.2519ZM100.035 66.8237L100.753 66.6067C100.654 66.2815 100.35 66.063 100.01 66.0741C99.6707 66.0852 99.381 66.3231 99.3041 66.6539L100.035 66.8237ZM108.565 74.0285L108.83 73.3266C108.512 73.2072 108.154 73.3156 107.956 73.591L108.565 74.0285ZM99.3141 66.6199L95.1444 80.0521L96.577 80.4968L100.747 67.0646L99.3141 66.6199ZM84.7802 76.8348L88.9499 63.4026L87.5174 62.9579L83.3477 76.3901L84.7802 76.8348ZM96.4627 79.8271L92.0956 73.9504L90.8916 74.845L95.2587 80.7218L96.4627 79.8271ZM91.2794 73.679L83.8497 75.8937L84.2782 77.3312L91.7079 75.1165L91.2794 73.679ZM110.967 63.5181L115.027 76.9463L116.463 76.5122L112.403 63.084L110.967 63.5181ZM104.813 80.0348L100.753 66.6067L99.3168 67.0408L103.377 80.4689L104.813 80.0348ZM116.009 76.0272L108.83 73.3266L108.301 74.7305L115.481 77.4312L116.009 76.0272ZM107.956 73.591L103.486 79.8143L104.704 80.6894L109.175 74.4661L107.956 73.591ZM100.761 67.012L100.765 66.9935L99.3041 66.6539L99.2998 66.6724L100.761 67.012Z" fill="black"/>
<path d="M120.691 19.957L126.742 13.6704" stroke="black" stroke-width="1.5" stroke-miterlimit="10"/>
<path d="M124.417 24.1815L129.749 21.0532" stroke="black" stroke-width="1.5" stroke-miterlimit="10"/>
<path d="M116.599 16.9412L118.477 13.9412" stroke="black" stroke-width="1.5" stroke-miterlimit="10"/>
<path d="M153.601 51.3913L153.601 51.3932C153.579 51.7346 153.691 51.9421 153.835 52.0714C153.991 52.212 154.23 52.2989 154.504 52.2969C155.06 52.2928 155.56 51.9479 155.601 51.3142C155.964 45.3855 153.87 39.116 148.938 35.6678C144.562 32.6108 138.487 32.5581 134.317 35.8821C134.165 36.0068 134.071 36.2346 134.087 36.5331C134.103 36.8346 134.228 37.1088 134.382 37.2559C134.792 37.6378 135.344 37.6057 135.851 37.1956L135.854 37.1935C139.426 34.3431 144.893 35.0366 148.279 37.6427L148.28 37.6433C152.471 40.884 153.906 46.4314 153.601 51.3913Z" fill="#FF0062" stroke="#FF0062"/>
</svg>
