<svg xmlns="http://www.w3.org/2000/svg" width="109" height="108" fill="none"><rect width="108" height="108" x=".5" fill="#EFF2FF" rx="54"/><path stroke="#002BFF" stroke-linecap="round" stroke-linejoin="round" stroke-width="1.5" d="M66.688 33.375h6.562a1.875 1.875 0 0 1 1.875 1.875v6.563M66.688 74.625h6.562a1.875 1.875 0 0 0 1.875-1.875v-6.563M42.313 74.625H35.75a1.875 1.875 0 0 1-1.875-1.875v-6.563M42.313 33.375H35.75a1.875 1.875 0 0 0-1.875 1.875v6.563M54.5 57.75a7.5 7.5 0 1 0 0-15 7.5 7.5 0 0 0 0 15Z"/><path stroke="#002BFF" stroke-linecap="round" stroke-linejoin="round" stroke-width="1.5" d="M42.055 65.25a14.087 14.087 0 0 1 24.89 0"/></svg>