<svg viewBox="0 0 200 90" fill="none" xmlns="http://www.w3.org/2000/svg">
<rect width="200" height="90" fill="white"/>
<g clip-path="url(#clip0_1058_47089)">
<mask id="path-1-inside-1_1058_47089" fill="white">
<path d="M118.91 17.0698L90.0602 44.4298L55.9502 25.5798"/>
</mask>
<path d="M118.91 17.0698L90.0602 44.4298L55.9502 25.5798" fill="#FF0062"/>
<path d="M90.0602 44.4298L89.5765 45.3051L90.2172 45.6591L90.7483 45.1554L90.0602 44.4298ZM118.222 16.3442L89.3721 43.7042L90.7483 45.1554L119.598 17.7954L118.222 16.3442ZM90.5439 43.5546L56.4339 24.7046L55.4665 26.4551L89.5765 45.3051L90.5439 43.5546Z" fill="#FF0062" mask="url(#path-1-inside-1_1058_47089)"/>
<path d="M123.91 61.7201L63.0996 69.9401C62.4496 70.0301 61.8496 69.5701 61.7596 68.9201L56.0396 26.6001C55.9496 25.9501 56.4096 25.3501 57.0596 25.2601L117.87 17.0401C118.52 16.9501 119.12 17.4101 119.21 18.0601L124.93 60.3801C125.01 61.0301 124.56 61.6301 123.91 61.7201Z" stroke="black" stroke-width="1.5" stroke-miterlimit="10"/>
<path d="M123.49 10.27L120.82 14.39" stroke="black" stroke-width="1.5" stroke-miterlimit="10"/>
<path d="M122.26 18.18L128.71 17.23" stroke="black" stroke-width="1.5" stroke-miterlimit="10"/>
<path d="M117.191 14.2801L115.891 10.3501" stroke="black" stroke-width="1.5" stroke-miterlimit="10"/>
<path d="M122.277 23.0893L122.277 23.0893L122.283 23.0895C122.416 23.0942 122.525 23.2032 122.52 23.3508C122.52 23.3514 122.52 23.3521 122.52 23.3527L122.068 33.6577L120.624 23.0179L122.277 23.0893Z" stroke="black" stroke-width="1.5"/>
<path d="M60.3495 20.6123L60.3495 20.6123L60.3497 20.6066C60.3544 20.4739 60.4634 20.3649 60.6109 20.3693C60.6116 20.3693 60.6122 20.3693 60.6129 20.3693L81.0618 21.2705L60.1983 24.0962L60.3495 20.6123Z" stroke="black" stroke-width="1.5"/>
<path d="M99.9082 65.7191L120.772 62.8934L120.62 66.3773L120.62 66.3773L120.62 66.383C120.616 66.5157 120.507 66.6247 120.359 66.6203C120.358 66.6203 120.358 66.6203 120.357 66.6203L99.9082 65.7191Z" stroke="black" stroke-width="1.5"/>
<path d="M58.902 53.3322L60.3461 63.972L58.6922 63.9006L58.6922 63.9006L58.6867 63.9004C58.554 63.8957 58.445 63.7867 58.4493 63.6392C58.4494 63.6385 58.4494 63.6379 58.4494 63.6372L58.902 53.3322Z" stroke="black" stroke-width="1.5"/>
<path d="M134.185 19.6798L134.185 19.6798L134.184 19.6792C133.712 19.4809 133.712 18.8094 134.184 18.611L134.184 18.611L134.185 18.6104L139.395 16.4007C139.395 16.4006 139.395 16.4006 139.395 16.4005C139.775 16.2404 140.2 16.5175 140.2 16.9401V21.3701C140.2 21.7654 139.781 22.0528 139.395 21.8896C139.395 21.8896 139.395 21.8896 139.395 21.8895L134.185 19.6798Z" fill="#002BFF" stroke="#002BFF"/>
<path d="M42.9895 46.0429L42.9889 46.0445C41.4538 50.1707 41.1846 54.7734 41.825 59.1376L41.825 59.1376C43.11 67.8973 48.5367 74.9836 56.7743 78.2453L56.7746 78.2454C61.9819 80.3107 67.7354 80.415 73.1873 79.1531C73.5182 79.0754 73.6934 78.9053 73.7839 78.7208C73.8814 78.5222 73.9013 78.2621 73.8284 77.9986C73.6813 77.4672 73.2298 77.093 72.6142 77.237L72.6132 77.2373C64.3657 79.1491 55.4029 77.3071 49.398 70.9948L49.3979 70.9947C43.8564 65.1659 42.2806 55.9659 44.3378 48.399L44.3378 48.3988C45.2572 45.0245 47.0722 41.2466 50.6412 39.7115C50.9493 39.5763 51.0665 39.3907 51.1053 39.2209C51.1486 39.0313 51.1091 38.7887 50.9688 38.5492C50.6833 38.0618 50.1111 37.7734 49.5186 38.0292L42.9895 46.0429ZM42.9895 46.0429C44.2123 42.7196 46.2865 39.428 49.5185 38.0292L42.9895 46.0429Z" fill="#002BFF" stroke="#002BFF"/>
<path d="M148 48.5C161.5 42.5 161.5 19 140.5 19" stroke="#002BFF" stroke-width="3" stroke-linecap="round"/>
<path d="M106 79C101 63.5 110 58.5 123 55.5C136 52.5 139.5 52.5 148 48.5" stroke="#FF0062" stroke-width="3" stroke-linecap="round"/>
</g>
<defs>
<clipPath id="clip0_1058_47089">
<rect width="118.02" height="70.47" fill="white" transform="translate(41 10)"/>
</clipPath>
</defs>
</svg>
