<svg viewBox="0 0 272 166" fill="none" xmlns="http://www.w3.org/2000/svg">
<path d="M129.273 132.182V128.727" stroke="black" stroke-width="1.5" stroke-miterlimit="10"/>
<path d="M134.875 128.48C134.875 128.48 126.349 128.991 122.583 125.145C118.817 121.299 121.332 108.292 123.309 96.4972C125.287 84.7024 132.137 84.5356 135.78 84.7135C139.948 84.9136 147.111 86.5255 147.424 103.89C147.424 103.89 151.067 104.201 150.855 106.791C150.642 109.381 147.424 109.837 147.424 109.837V132.182" stroke="black" stroke-width="1.5" stroke-miterlimit="10"/>
<path d="M61.9092 124.184C61.9092 124.184 130.497 142.597 209.591 123.545" stroke="black" stroke-width="1.5" stroke-miterlimit="10"/>
<path d="M42.2701 130.055C48.4533 130.055 99.791 110.187 109.686 105.225C115.227 102.433 117.11 99.4737 116.024 98.2388C114.939 97.004 100.256 100.097 100.256 100.097C100.256 100.097 115.559 94.8236 115.094 92.3095C114.407 88.6162 96.3892 94.1673 96.3892 94.1673C96.3892 94.1673 114.119 88.1156 113.864 83.6101C113.609 79.1047 94.8378 87.9598 94.8378 87.9598C94.8378 87.9598 111.382 80.6955 110.927 76.5016C110.473 72.3077 97.6302 79.4496 97.6302 79.4496C97.6302 79.4496 88.3444 86.28 70.1053 88.1489C51.8662 90.0178 0.894127 94.6679 1.45925 129.132C2.02438 163.595 67.6343 163.273 67.6343 163.273" stroke="black" stroke-width="1.5" stroke-miterlimit="10"/>
<path d="M82.6365 86.4091C83.947 85.4617 90.4778 80.6909 93.3192 74.6795C94.6188 71.9275 100.004 73.8674 97.5483 79.9466" stroke="black" stroke-width="1.5" stroke-miterlimit="10"/>
<path d="M230.056 130.088C223.876 130.088 172.561 110.22 162.67 105.258C157.132 102.466 155.261 99.507 156.335 98.2722C157.409 97.0374 172.107 100.13 172.107 100.13C172.107 100.13 156.8 94.857 157.265 92.3429C157.952 88.6495 175.962 94.2007 175.962 94.2007C175.962 94.2007 158.24 88.1489 158.506 83.6435C158.772 79.1381 177.512 87.9932 177.512 87.9932C177.512 87.9932 160.976 80.6955 161.441 76.5016C161.906 72.3077 174.732 79.4496 174.732 79.4496C174.732 79.4496 184.003 86.28 202.234 88.1489C220.465 90.0178 271.48 94.6679 270.904 129.132C270.328 163.595 204.759 163.273 204.759 163.273" stroke="black" stroke-width="1.5" stroke-miterlimit="10"/>
<path d="M189.727 86.4091C188.427 85.4617 181.894 80.6909 179.04 74.6795C177.74 71.9275 172.353 73.8674 174.821 79.9466" stroke="black" stroke-width="1.5" stroke-miterlimit="10"/>
<path d="M124.955 90.5294H139.614C139.614 90.5294 138.746 103.764 147.395 104.545C147.395 104.545 148.252 86.2108 136.615 84.8382C134.313 84.4492 131.946 84.7901 129.852 85.8122C127.758 86.8343 126.044 88.4854 124.955 90.5294Z" fill="black"/>
<path d="M127.546 99.3636C128.022 99.3636 128.409 98.977 128.409 98.5C128.409 98.023 128.022 97.6364 127.546 97.6364C127.069 97.6364 126.682 98.023 126.682 98.5C126.682 98.977 127.069 99.3636 127.546 99.3636Z" fill="black"/>
<path d="M135.318 99.3636C135.795 99.3636 136.182 98.977 136.182 98.5C136.182 98.023 135.795 97.6364 135.318 97.6364C134.841 97.6364 134.455 98.023 134.455 98.5C134.455 98.977 134.841 99.3636 135.318 99.3636Z" fill="black"/>
<path d="M131.864 96.7727L131 107.136" stroke="black" stroke-width="1.5" stroke-miterlimit="10"/>
<path d="M135.995 111.369C135.995 111.687 135.377 112.165 134.022 111.943C132.382 111.674 130.577 111.615 128.852 111.774C127.438 111.982 126.808 112.117 126.297 111.774C125.406 111.161 126.356 109.935 131.419 110.003C135.46 110.051 136.066 110.712 135.995 111.369Z" fill="black"/>
<path d="M15.2727 108.864C11.6369 111.107 6.48171 122.637 7.67555 130.455" stroke="#FF0062" stroke-width="2" stroke-miterlimit="10"/>
<path d="M93.6202 51V4.37143L94.9083 4.59L71.0073 34.2429L70.7927 33.5871H106V37.1571H68.7174L67 33.8057L94.2642 0H97.2697V51H93.6202Z" fill="black"/>
<path d="M185.62 51V4.37143L186.908 4.59L163.007 34.2429L162.793 33.5871H198V37.1571H160.717L159 33.8057L186.264 0H189.27V51H185.62Z" fill="black"/>
<path d="M133 60C128.974 60 125.537 58.9694 122.69 56.9083C119.842 54.8472 117.682 51.8537 116.209 47.9278C114.736 43.9528 114 39.1435 114 33.5C114 27.8565 114.736 23.0718 116.209 19.1458C117.682 15.1708 119.842 12.1528 122.69 10.0917C125.537 8.03056 128.974 7 133 7C137.075 7 140.512 8.03056 143.31 10.0917C146.158 12.1528 148.318 15.1708 149.791 19.1458C151.264 23.0718 152 27.8565 152 33.5C152 39.1435 151.264 43.9528 149.791 47.9278C148.318 51.8537 146.158 54.8472 143.31 56.9083C140.512 58.9694 137.075 60 133 60ZM133 56.3931C137.86 56.3931 141.592 54.4056 144.194 50.4306C146.796 46.4556 148.097 40.812 148.097 33.5C148.097 26.1389 146.796 20.4954 144.194 16.5694C141.592 12.5944 137.86 10.6069 133 10.6069C128.14 10.6069 124.384 12.5944 121.733 16.5694C119.13 20.4954 117.829 26.1389 117.829 33.5C117.829 40.812 119.13 46.4556 121.733 50.4306C124.384 54.4056 128.14 56.3931 133 56.3931Z" fill="black"/>
<path d="M217.196 22.4224C222.354 19.0325 227.502 15.6426 232.66 12.243C233.403 11.7546 234.145 11.2661 234.897 10.7776C236.47 9.74212 234.995 7.20217 233.422 8.24746C228.264 11.6373 223.116 15.0272 217.958 18.4268C217.215 18.9153 216.473 19.4037 215.721 19.8922C214.148 20.9277 215.613 23.4677 217.196 22.4224Z" fill="#003AF5"/>
<path d="M226.594 48.0628C232.532 49.745 236.982 51.0914 242.928 52.7672C243.783 53.009 244.638 53.2508 245.5 53.5C247.312 54.0117 248.268 51.2342 246.448 50.7289C240.509 49.0467 236.06 47.7003 230.114 46.0244C229.258 45.7826 228.403 45.5408 227.542 45.2916C225.729 44.7799 224.768 47.55 226.594 48.0628Z" fill="#003AF5"/>
<path d="M52.1479 47.2447C47.9232 51.7445 46.6094 53.0195 42.3869 57.5289C41.7789 58.1771 41.1709 58.8253 40.5535 59.4758C39.2657 60.8497 41.2928 62.9753 42.5783 61.5919C46.803 57.0921 48.1168 55.8171 52.3392 51.3077C52.9472 50.6595 53.5552 50.0113 54.1727 49.3608C55.4605 47.9869 53.4429 45.8589 52.1479 47.2447Z" fill="#FF0062"/>
<path d="M214.421 34.3699C224.835 34.3699 235.249 34.3699 245.663 34.3699C247.128 34.3699 248.584 34.3699 250.049 34.3699C251.935 34.3699 251.935 31.4392 250.049 31.4392C239.635 31.4392 229.222 31.4392 218.808 31.4392C217.342 31.4392 215.887 31.4392 214.421 31.4392C212.526 31.4392 212.526 34.3699 214.421 34.3699Z" fill="#EB3464"/>
<path d="M48.0434 26.7695C42.8854 23.3797 37.7371 19.9898 32.579 16.5902C31.8366 16.1017 31.0941 15.6133 30.3419 15.1248C28.7593 14.0893 27.294 16.6195 28.8668 17.655C34.0248 21.0449 39.1731 24.4347 44.3312 27.8344C45.0737 28.3228 45.8161 28.8113 46.5683 29.2997C48.1411 30.345 49.6163 27.8051 48.0434 26.7695Z" fill="#FF0062"/>
<path d="M46.0895 38.1212C36.1348 41.1789 26.1801 44.2269 16.2157 47.2846C14.8187 47.7144 13.4217 48.1443 12.0248 48.5741C10.2273 49.1212 10.9892 51.9542 12.8063 51.3973C22.761 48.3396 32.7156 45.2917 42.6801 42.234C44.0771 41.8041 45.474 41.3743 46.871 40.9445C48.6685 40.3974 47.9065 37.5644 46.0895 38.1212Z" fill="#002BFF"/>
</svg>
