<svg viewBox="0 0 200 90" fill="none" xmlns="http://www.w3.org/2000/svg">
<path d="M85.2293 68.7526L85.2283 68.7527C83.293 68.9542 81.5601 67.5441 81.3676 65.6105L81.3675 65.6094L77.3975 26.6394L77.3974 26.6383C77.196 24.703 78.606 22.9701 80.5396 22.7776L80.5408 22.7775L140.551 16.6575L140.552 16.6574C142.487 16.456 144.22 17.866 144.413 19.7996L144.413 19.8007L148.383 58.7707L148.383 58.7718C148.584 60.7049 147.176 62.4306 145.239 62.6327C145.239 62.6327 145.239 62.6327 145.238 62.6327L85.2293 68.7526Z" fill="#002BFF" stroke="#002BFF"/>
<path d="M114.587 78.3523L114.586 78.3522L54.5173 72.7723C54.5171 72.7723 54.5168 72.7722 54.5166 72.7722C52.5801 72.5878 51.1541 70.8704 51.3378 68.9373L51.3379 68.9362L54.9578 29.9373C54.9578 29.9372 54.9578 29.937 54.9578 29.9368C55.1421 28.0002 56.8596 26.5741 58.7927 26.7578L58.7937 26.7579L118.863 32.3378C118.863 32.3378 118.863 32.3378 118.863 32.3379C120.8 32.5223 122.226 34.2397 122.042 36.1727L122.042 36.1738L118.422 75.1727C118.238 77.1096 116.521 78.536 114.587 78.3523Z" fill="#FF0062" stroke="#FF0062"/>
<path d="M27.7164 57.3915L27.7166 57.3933C27.7481 57.734 27.6416 57.9445 27.5015 58.0776C27.3491 58.2225 27.1126 58.3158 26.8383 58.3212C26.2825 58.3323 25.773 58.0011 25.7151 57.3687C25.1918 51.452 27.114 45.128 31.951 41.5471C36.2421 38.3724 42.3136 38.1548 46.5722 41.3644C46.7281 41.4848 46.8277 41.7101 46.82 42.0088C46.8123 42.3106 46.6948 42.5881 46.5449 42.7394C46.1457 43.1322 45.5925 43.1152 45.0743 42.719L45.0717 42.717C41.423 39.9646 35.9769 40.8063 32.6636 43.5034L32.6628 43.5041C28.5609 46.8573 27.2769 52.4417 27.7164 57.3915Z" fill="#FF0062" stroke="#FF0062"/>
<path d="M140.328 47.5332L140.329 47.5324C142.944 45.4866 146.329 44.9447 149.438 46.1499C151.115 46.7979 152.59 47.8364 153.966 48.9516C154.56 49.4338 155.143 49.9356 155.715 50.4288C155.805 50.5061 155.894 50.5831 155.983 50.6599C156.644 51.2289 157.294 51.7819 157.953 52.2905L157.953 52.2909C160.468 54.2393 163.179 55.9195 166.285 56.1577L166.286 56.1577C170.025 56.449 173.264 54.1195 175.731 51.3068L140.328 47.5332ZM140.328 47.5332C139.824 47.9293 139.197 47.7975 138.799 47.4006C138.603 47.2058 138.505 46.9837 138.5 46.7926C138.496 46.6216 138.563 46.4118 138.834 46.2009L138.835 46.2002C141.229 44.3292 144.084 43.2402 147.095 43.5535C150.795 43.9456 153.668 46.1726 156.556 48.5897C156.763 48.7633 156.973 48.9401 157.184 49.1188C159.336 50.9382 161.719 52.9524 164.551 53.8145C168.655 55.067 171.918 52.634 174.363 49.8458L174.364 49.8443M140.328 47.5332L174.364 49.8443M174.364 49.8443C174.589 49.5866 174.815 49.5178 175.009 49.527M174.364 49.8443L175.009 49.527M175.009 49.527C175.22 49.5371 175.452 49.6438 175.646 49.8381M175.009 49.527L175.646 49.8381M175.646 49.8381C176.038 50.2314 176.151 50.8271 175.731 51.3065L175.646 49.8381Z" fill="#002BFF" stroke="#002BFF"/>
<path d="M157.389 34.6883C157.911 36.1473 158.69 37.3626 159.664 38.1602C158.689 38.9599 157.91 40.1804 157.388 41.6394C156.863 40.1778 156.084 38.9602 155.115 38.1612C156.088 37.3629 156.867 36.1448 157.389 34.6883Z" fill="#FF0062" stroke="#FF0062"/>
<path d="M45.0375 22.272C45.3364 22.916 45.7312 23.4723 46.2063 23.8895C45.7305 24.3057 45.3347 24.8607 45.0335 25.5056C44.7345 24.8608 44.3395 24.3061 43.8642 23.89C44.3404 23.4733 44.7363 22.9177 45.0375 22.272Z" fill="#FF0062" stroke="#FF0062"/>
<path d="M128.341 70.3445C128.642 70.9915 129.039 71.5507 129.516 71.9696C129.038 72.3879 128.641 72.9464 128.339 73.5955C128.038 72.9485 127.641 72.3893 127.164 71.9705C127.642 71.5521 128.039 70.9937 128.341 70.3445Z" fill="#FF0062" stroke="#FF0062"/>
<path d="M133.86 54.96L74.5999 66.24C72.4199 66.66 70.3099 65.22 69.8899 63.04L62.5699 24.56C62.1499 22.38 63.5899 20.27 65.7699 19.85L125.03 8.57002C127.21 8.15002 129.32 9.59002 129.74 11.77L137.06 50.25C137.48 52.43 136.05 54.54 133.86 54.96Z" fill="white" stroke="black" stroke-width="1.5" stroke-miterlimit="10"/>
<path d="M117.35 52.55C120.222 52.55 122.55 50.2219 122.55 47.35C122.55 44.4781 120.222 42.15 117.35 42.15C114.478 42.15 112.15 44.4781 112.15 47.35C112.15 50.2219 114.478 52.55 117.35 52.55Z" stroke="black" stroke-width="1.5" stroke-miterlimit="10"/>
<path d="M131.11 45.77C131.11 48.7966 128.656 51.25 125.63 51.25C122.603 51.25 120.15 48.7966 120.15 45.77C120.15 42.7435 122.603 40.29 125.63 40.29C128.656 40.29 131.11 42.7435 131.11 45.77Z" fill="#FF0062" stroke="#FF0062"/>
<path d="M77.6599 30.06L69.2699 31.66C68.3899 31.83 67.5399 31.25 67.3699 30.37L66.3199 24.86C66.1499 23.98 66.7299 23.13 67.6099 22.96L75.9999 21.36C76.8799 21.19 77.7299 21.77 77.8999 22.65L78.9499 28.16C79.1199 29.05 78.5499 29.9 77.6599 30.06Z" stroke="black" stroke-width="1.5" stroke-miterlimit="10"/>
<path d="M74.6899 51.65L83.2899 50.02" stroke="black" stroke-width="1.5" stroke-miterlimit="10"/>
<path d="M86 49.5L94.6 47.86" stroke="black" stroke-width="1.5" stroke-miterlimit="10"/>
<path d="M97.3098 47.35L105.91 45.71" stroke="black" stroke-width="1.5" stroke-miterlimit="10"/>
<path d="M66.5298 25.96L78.1398 23.89" stroke="black" stroke-width="1.5" stroke-miterlimit="10"/>
<path d="M67.3799 28.59L78.9899 26.51" stroke="black" stroke-width="1.5" stroke-miterlimit="10"/>
</svg>
