<svg viewBox="0 0 272 195" fill="none" xmlns="http://www.w3.org/2000/svg">
<path d="M175.64 56.8322C175.64 56.8322 167.763 57.1562 165.075 57.1674C162.045 57.1674 160.631 54.4932 163.769 52.2921C166.214 50.5825 174.408 46.2994 181.023 43.4204C183.346 42.4111 186.786 43.2379 188.506 45.6998C190.706 48.8395 188.569 51.5286 188.081 52.5342C188.751 52.7241 191.432 52.8619 190.94 55.1674C190.304 58.173 185.628 56.7242 185.628 56.7242L182.021 67" stroke="black" stroke-width="1.5" stroke-miterlimit="10"/>
<path d="M167.787 50C167.277 50.8253 166.125 52.7523 168.169 53.6601C169.596 54.2914 172 53.8499 172 53.8499" stroke="black" stroke-width="1.5" stroke-miterlimit="10"/>
<path d="M172 57L170 64" stroke="black" stroke-width="1.5" stroke-miterlimit="10"/>
<path d="M124 52C126.565 53.0377 223.56 77.3977 227 78" stroke="black" stroke-width="1.5" stroke-miterlimit="10"/>
<path d="M177.002 48C177.002 48 176.929 49.332 177.691 49.8548C178.453 50.3776 180 49.3206 180 49.3206" stroke="black" stroke-width="1.5" stroke-miterlimit="10" stroke-linecap="round"/>
<path d="M195.425 86.1874C202.691 87.6458 220.106 92.1049 226.702 92.8378C235.827 93.8514 242.807 90.0777 243.847 82.5632C244.897 74.9758 240.458 70.3343 233.093 66.5206C225.729 62.7068 191 54 191 54" stroke="black" stroke-width="1.5" stroke-miterlimit="10" stroke-linecap="round"/>
<path d="M135.63 94L145.607 74.3671C140.624 72.3969 122.887 65.5321 114.98 61.8768C103.466 56.5582 104.282 48.6992 105.993 44.989C108.887 38.7201 112.561 35.8068 130.419 39.8898C144.813 43.1796 169 49.2694 169 49.2694" stroke="black" stroke-width="1.5" stroke-miterlimit="10" stroke-linecap="round"/>
<path d="M135.247 94.58C130.031 94.2709 91.5599 92.7402 86.34 93.0383C81.1201 93.3363 71.3108 93.6859 70.0754 104.761C69.0161 114.328 79.4192 157.288 82.2601 168.764C81.6332 169.618 81.6626 169.975 81.7066 170.31C81.8275 171.167 82.9675 171.594 82.9675 171.594C82.9675 171.594 75.2917 180.837 82.0438 191L106.098 158.656L99.232 122.828H177.934C177.948 122.829 177.962 122.825 177.974 122.817C177.985 122.809 177.994 122.797 177.998 122.783C178.002 122.769 178.001 122.754 177.995 122.741C177.989 122.728 177.979 122.717 177.967 122.71L135.247 94.58Z" stroke="black" stroke-width="1.5" stroke-miterlimit="10" stroke-linecap="round"/>
<path d="M135 94.5L52.2912 37.8281C52.2912 37.8281 52.8637 36.4948 51.9792 36.0676C51.7076 35.9169 51.3882 35.8783 51.0887 35.9602C50.7893 36.042 50.658 36.2319 50.5 36.5C50.5 36.5 53.1389 29.3165 45.7624 25L28 50.7519L83.5 93" stroke="black" stroke-width="1.5" stroke-miterlimit="10" stroke-linecap="round"/>
<path d="M74 135H22.1621C20.5278 135 18.9605 134.323 17.8049 133.117C16.6492 131.912 16 130.276 16 128.572V123H55.0135L56.1342 124.341C56.7425 125.07 57.4936 125.654 58.3368 126.055C59.18 126.456 60.0957 126.663 61.0223 126.664H72.5434" stroke="black" stroke-width="1.5" stroke-miterlimit="10" stroke-linecap="round"/>
<path d="M99 123H178L172.458 135H102" stroke="black" stroke-width="1.5" stroke-miterlimit="10" stroke-linecap="round"/>
<path d="M102 56L96.5 67" stroke="black" stroke-width="1.5" stroke-miterlimit="10" stroke-linecap="round"/>
<path d="M209.26 58L223.8 27.1243C223.953 26.7902 224.02 26.423 223.995 26.0562C223.97 25.6894 223.854 25.3347 223.657 25.0242C223.461 24.7138 223.19 24.4574 222.869 24.2786C222.548 24.0997 222.188 24.0039 221.821 24H122.323C121.476 24.0005 120.645 24.2278 119.915 24.6582C119.186 25.0887 118.585 25.7066 118.174 26.448L112 38.5" stroke="black" stroke-width="1.5" stroke-miterlimit="10" stroke-linecap="round"/>
<path d="M178 123L195 87" stroke="black" stroke-width="1.5" stroke-miterlimit="10" stroke-linecap="round"/>
<path d="M70 112L61.5 126.5" stroke="black" stroke-width="1.5" stroke-miterlimit="10" stroke-linecap="round"/>
<path d="M182.01 43.1369C182.01 43.1369 181.521 52.2351 187.508 53C187.508 53 190.23 48.3875 188.321 45.7506C187.596 44.7085 186.62 43.9111 185.505 43.4491C184.389 42.9871 183.178 42.8789 182.01 43.1369V43.1369Z" fill="black"/>
<path d="M81 175L85 177" stroke="black" stroke-width="1.5" stroke-miterlimit="10" stroke-linecap="round"/>
<path d="M83 172L105 154" stroke="black" stroke-width="1.5" stroke-miterlimit="10" stroke-linecap="round"/>
<path d="M50.5 36.5L35.5 56.5" stroke="black" stroke-width="1.5" stroke-miterlimit="10" stroke-linecap="round"/>
<path d="M50 31L46 35" stroke="black" stroke-width="1.5" stroke-miterlimit="10" stroke-linecap="round"/>
<path d="M158 101H195V122.69C195 125.953 193.729 129.082 191.465 131.39C189.202 133.699 186.132 134.997 182.93 135H170.081C166.877 135 163.804 133.703 161.538 131.394C159.273 129.086 158 125.955 158 122.69V101Z" fill="white" stroke="black" stroke-width="1.5" stroke-miterlimit="10" stroke-linecap="round"/>
<path d="M195 106H201.958C204.091 106 206.136 106.843 207.644 108.343C209.153 109.843 210 111.878 210 114V114C210 116.122 209.153 118.157 207.644 119.657C206.136 121.157 204.091 122 201.958 122H195V106Z" stroke="black" stroke-width="1.5" stroke-miterlimit="10" stroke-linecap="round"/>
<path d="M195 110H202.009C202.533 110 203.052 110.103 203.536 110.304C204.02 110.506 204.46 110.8 204.831 111.172C205.202 111.543 205.496 111.984 205.696 112.469C205.897 112.955 206 113.475 206 114V114C206 114.525 205.897 115.045 205.696 115.531C205.496 116.016 205.202 116.457 204.831 116.828C204.46 117.2 204.02 117.494 203.536 117.696C203.052 117.897 202.533 118 202.009 118H195V110V110Z" stroke="black" stroke-width="1.5" stroke-miterlimit="10" stroke-linecap="round"/>
<path d="M162 106V122" stroke="black" stroke-width="1.5" stroke-miterlimit="10" stroke-linecap="round"/>
<path d="M167.5 29C168.328 29 169 28.3284 169 27.5C169 26.6716 168.328 26 167.5 26C166.672 26 166 26.6716 166 27.5C166 28.3284 166.672 29 167.5 29Z" fill="black"/>
<path d="M118 37.5L121.246 31H215L202.131 57" stroke="black" stroke-width="1.5" stroke-miterlimit="10" stroke-linecap="round"/>
<path d="M101 71L108 57" stroke="black" stroke-width="1.5" stroke-miterlimit="10" stroke-linecap="round"/>
<path d="M93.429 22.2952C92.2335 20.3688 89.8914 20.1337 87.9038 20.9136C85.6555 21.9417 83.7482 23.6158 82.4263 25.7214C80.5184 28.4338 79.4518 31.6434 79.3651 34.9333C79.2784 38.2231 80.1756 41.4412 81.94 44.1694C85.0127 48.8781 90.205 51.8331 95.2901 53.8688C97.0037 54.5488 98.0409 51.8282 96.3407 51.1459C92.1901 49.4887 88.0563 47.2426 85.2125 43.722C83.3252 41.4739 82.2483 38.6403 82.1515 35.6677C82.1547 35.0177 82.1995 34.3676 82.2856 33.7215C82.3341 33.3961 82.3903 33.0763 82.4522 32.7487C82.5003 32.4617 82.569 32.1781 82.6577 31.9002C82.8406 31.2692 83.0569 30.6478 83.3055 30.0388C83.4347 29.7479 83.5581 29.4649 83.7026 29.1852C83.7883 29.0672 83.8337 28.9078 83.904 28.7786C83.9744 28.6494 84.047 28.5819 83.9441 28.7235C83.8412 28.8651 84.0355 28.5976 84.0584 28.5662C84.6498 27.526 85.3555 26.5546 86.162 25.6707C86.3164 25.4583 86.0306 25.8517 86.2306 25.5763L86.5054 25.2951C86.7116 25.1083 86.912 24.9294 87.1202 24.756C87.3283 24.5827 87.5002 24.4431 87.6932 24.3068C87.8861 24.1705 87.8938 24.1761 87.9874 24.1119C88.3103 23.8776 87.8899 24.1492 88.0503 24.0253C88.2108 23.9015 88.5015 23.7761 88.7386 23.6599L89.0638 23.5355C89.1038 23.4804 89.4751 23.3896 89.2455 23.4632C89.0159 23.5368 89.5843 23.3848 89.7183 23.3619L90.0573 23.3317C89.7796 23.3584 89.8427 23.32 90.0573 23.3317L90.3372 23.3667C90.5096 23.3718 90.0033 23.2444 90.3372 23.3667L90.5579 23.467C90.8687 23.5726 90.3888 23.3442 90.5579 23.467C90.727 23.5899 91.0579 23.9264 90.7885 23.6345C90.935 23.7973 91.0665 23.9733 91.1814 24.1604C91.4116 24.4521 91.747 24.6402 92.1172 24.685C92.4875 24.7299 92.8638 24.6281 93.1672 24.4011C93.4591 24.1591 93.6513 23.8166 93.705 23.4427C93.7586 23.0688 93.6697 22.6915 93.4562 22.3871L93.429 22.2952Z" fill="#002BFF"/>
<path d="M61.8328 10.1662C58.9689 16.4634 62.3911 23.9114 67.5896 28.1183C73.998 33.2972 84.0885 34.586 90.9501 30.2174C93.4604 28.6366 95.5349 25.5656 93.7356 22.5851C92.7594 20.9927 90.1373 22.0972 91.13 23.6667C91.3775 23.9632 91.5295 24.3246 91.5657 24.702C91.6018 25.0794 91.5202 25.4547 91.332 25.7772C90.874 26.584 90.2204 27.2616 89.4275 27.7516C86.8724 29.3145 83.8827 30.084 80.8301 29.9645C73.2948 29.8696 64.8389 24.7719 63.8753 16.8094C63.5789 14.9014 63.8166 12.9676 64.5622 11.2197C65.3068 9.56455 62.5852 8.51681 61.8328 10.1662V10.1662Z" fill="#FF0062"/>
<path d="M233.864 28.0444C238.376 25.7475 243.542 24.7683 248.38 26.4366C252.379 27.8813 255.664 30.8134 257.55 34.6208C259.462 38.3025 259.895 42.5749 258.76 46.5647C257.333 51.4003 253.534 54.8457 249.082 56.9492C244.524 58.9124 239.654 60.0543 234.698 60.322C229.412 60.7934 224.113 60.8055 218.815 60.8176C209.137 60.8176 198.564 60.4066 189.357 63.997C185.153 65.5334 181.482 68.2492 178.784 71.8186C175.724 76.0014 174.49 81.2359 174.115 86.3254C173.994 87.9695 173.982 89.6015 174.018 91.2456C174.078 93.5788 177.708 93.5908 177.647 91.2456C177.514 85.7451 178.059 79.9424 180.95 75.131C183.136 71.6143 186.436 68.9292 190.325 67.5028C199.761 63.8157 210.576 64.4806 220.569 64.4443C231.069 64.4443 242.876 64.6136 252.336 59.379C257.071 56.8809 260.637 52.6275 262.268 47.5318C263.245 44.0087 263.244 40.2865 262.266 36.7638C261.288 33.2411 259.369 30.0507 256.715 27.5342C254.061 25.0178 250.773 23.2701 247.201 22.4783C243.63 21.6865 239.91 21.8806 236.44 23.0396C234.912 23.5432 233.427 24.1699 232.001 24.9133C229.92 25.9772 231.747 29.1082 233.827 28.0444H233.864Z" fill="#002BFF"/>
</svg>
