<svg viewBox="0 0 273 195" fill="none" xmlns="http://www.w3.org/2000/svg">
<g clip-path="url(#clip0_1001_31140)">
<path d="M99.9084 105.267L116.143 88.7449L223.606 110.4C223.62 110.4 223.62 110.427 223.606 110.427L99.9084 105.267Z" fill="white"/>
<path d="M223.62 111.1L98.3303 105.885L115.909 87.9904L224.333 109.837L224.237 111.072L223.62 111.1ZM101.473 104.65L215.07 109.371L116.376 89.4862L101.473 104.65Z" fill="black"/>
<path d="M119.697 85.0134L134.806 69.8359L223.606 110.359C223.62 110.373 223.62 110.387 223.592 110.387L119.697 85.0134Z" fill="white"/>
<path d="M224.045 111.183L223.414 111.032L118.338 85.3701L134.655 69.0125L224.457 109.989L224.045 111.183ZM121.042 84.629L216.868 108.026L134.956 70.6592L121.042 84.629Z" fill="black"/>
<path d="M118.449 85.2742L117.667 89.1485L119.013 89.4198L119.794 85.5455L118.449 85.2742Z" fill="black"/>
<path d="M112.135 117.248L114.4 106.036L115.745 106.311L113.837 115.78L222.892 109.659L222.961 111.032L112.135 117.248Z" fill="black"/>
<path d="M86.172 31.9745C78.3088 28.2282 72.408 36.1188 70.1575 42.7195C67.1933 51.3923 68.0167 61.9452 73.6568 69.3829C77.5815 74.5565 83.4 77.6166 89.685 78.8791C92.2786 79.4006 93.3765 75.4347 90.7829 74.9132C85.9524 73.9389 81.4102 71.9354 78.0344 68.2577C75.2898 65.2661 73.6705 61.4374 72.9706 57.4578C71.7905 50.7748 73.2314 42.1569 77.7736 37.3676C78.0481 37.0794 78.3363 36.805 78.6382 36.5442C79.0224 36.2012 78.7479 36.3933 79.2694 36.0639C80.0242 35.5836 80.2986 35.419 80.8475 35.2817C81.0122 35.2406 81.9728 35.0622 81.4651 35.1171C81.8081 35.0759 82.1512 35.0759 82.4943 35.0896C82.6727 35.0896 83.8391 35.4052 84.0861 35.5288C86.4739 36.654 88.5598 33.1135 86.172 31.9745Z" fill="#003AF5"/>
<path d="M26.7796 43.323C28.3577 55.55 39.4869 63.9347 51.1101 65.5951C59.4124 66.7753 67.852 65.06 75.0976 60.8333C80.7788 57.5124 86.117 52.5722 88.9439 46.5204C91.2494 41.5802 91.8394 34.856 86.1719 31.9605C83.8116 30.7529 81.7257 34.3071 84.0998 35.5147C85.6367 36.2969 86.2817 37.1203 86.5562 38.8494C86.611 39.1513 86.5699 40.5647 86.4738 41.0862C86.2817 42.1017 85.9798 43.1034 85.5681 44.0503C83.3725 49.2101 78.9949 53.4779 74.3429 56.4695C62.6373 63.9759 44.482 64.415 35.2328 52.6408C33.6684 50.651 32.4471 48.3456 31.6786 46.0813C31.4179 45.3265 31.1983 44.5443 31.0199 43.7621C30.9513 43.4328 30.7592 42.1977 30.9101 43.3093C30.5533 40.7294 26.4365 40.702 26.7796 43.323Z" fill="#EB3464"/>
<path d="M98.0859 97.6943L76.5027 101.725L76.7546 103.074L98.3379 99.0432L98.0859 97.6943Z" fill="black"/>
<path d="M122.847 55.3818L121.591 55.9343L126.569 67.2526L127.825 66.7001L122.847 55.3818Z" fill="black"/>
<path d="M112.387 71.0176L111.483 72.0504L115.573 75.6288L116.476 74.596L112.387 71.0176Z" fill="black"/>
<path d="M100.704 90.2552H94.5703V91.6275H100.704V90.2552Z" fill="black"/>
<path d="M222.33 144.885H271.677C271.677 144.885 270.799 128.665 257.309 127.91C251.875 127.608 246.962 133.098 247.003 136.542C246.962 132.068 243.353 121.351 232.045 121.323C217.486 121.296 222.33 144.885 222.33 144.885Z" fill="white"/>
<path d="M272.404 145.572H221.767L221.657 145.023C221.534 144.446 218.789 130.723 224.196 124.095C226.076 121.79 228.711 120.637 232.018 120.637C232.032 120.637 232.032 120.637 232.045 120.637C241.542 120.651 245.947 127.951 247.25 133.331C247.799 132.343 248.568 131.341 249.501 130.449C251.806 128.253 254.661 127.073 257.35 127.224C271.293 128.006 272.349 144.68 272.363 144.858L272.404 145.572ZM222.906 144.199H270.922C270.771 142.868 270.291 139.904 268.919 136.926C266.503 131.684 262.592 128.885 257.282 128.583C254.976 128.445 252.479 129.488 250.461 131.423C248.774 133.029 247.689 135.032 247.703 136.501C247.703 136.501 247.703 136.501 247.703 136.515L246.331 136.528V136.515C246.29 131.959 242.639 122.009 232.059 121.996C232.045 121.996 232.045 121.996 232.032 121.996C229.15 121.996 226.886 122.998 225.28 124.96C220.848 130.38 222.453 141.592 222.906 144.199Z" fill="black"/>
<path d="M1.76294 96.4717H62.1845C62.1845 96.4717 64.0508 88.0459 58.6989 86.509C53.347 84.972 49.5046 91.4903 49.5046 91.4903C49.5046 91.4903 47.9402 76.5188 39.1576 76.5325C30.375 76.5462 29.2086 90.3376 29.2086 90.3376C29.2086 90.3376 21.9355 84.1898 14.6624 86.4952C7.3893 88.8007 1.76294 96.4717 1.76294 96.4717Z" fill="white"/>
<path d="M62.7333 97.1578H0.404297L1.20022 96.06C1.43351 95.7444 7.03242 88.1969 14.4427 85.8502C20.4808 83.9291 26.3816 87.4558 28.6733 89.0751C29.1948 85.5895 31.3355 75.8738 39.1575 75.8463H39.1713C46.6914 75.8463 49.2164 85.6307 49.9299 89.6926C51.4943 87.744 54.7192 84.6564 58.8772 85.8502C64.7918 87.5382 62.9255 96.2521 62.8431 96.6089L62.7333 97.1578ZM3.19003 95.7856H61.6081C61.8825 94.0016 62.4452 88.3066 58.5067 87.1676C53.7174 85.7954 50.1358 91.7785 50.0946 91.8334L49.038 93.6311L48.8184 91.5589C48.8047 91.4217 47.2266 77.2186 39.1575 77.2186H39.1438C31.0885 77.2323 29.8946 90.269 29.8809 90.3925L29.7711 91.7099L28.7556 90.8591C28.687 90.8042 21.6747 84.9857 14.8544 87.1539C9.51625 88.8555 5.01516 93.6174 3.19003 95.7856Z" fill="black"/>
</g>
<defs>
<clipPath id="clip0_1001_31140">
<rect width="272" height="114.572" fill="white" transform="translate(0.404297 31)"/>
</clipPath>
</defs>
</svg>
