<svg viewBox="0 0 272 195" fill="none" xmlns="http://www.w3.org/2000/svg">
<g clip-path="url(#clip0_1001_30994)">
<path d="M34.8166 75.5381L15.675 43.7212H48.4537L67.5857 75.0333L34.8166 75.5381Z" fill="#EB3464"/>
<path d="M212.575 85.9849L204.719 91.6036L200.462 83.2613L192.444 90.0704L189.844 84.4041C189.844 84.4041 196.872 82.8805 201.414 83.2614C205.966 83.6423 212.575 85.9849 212.575 85.9849Z" fill="black"/>
<path d="M39.9021 101.127C40.6174 101.127 41.1972 100.547 41.1972 99.8316C41.1972 99.1163 40.6174 98.5365 39.9021 98.5365C39.1868 98.5365 38.6069 99.1163 38.6069 99.8316C38.6069 100.547 39.1868 101.127 39.9021 101.127Z" fill="#003AF5"/>
<path d="M270.705 66.4339C271.42 66.4339 272 65.8541 272 65.1388C272 64.4235 271.42 63.8436 270.705 63.8436C269.99 63.8436 269.41 64.4235 269.41 65.1388C269.41 65.8541 269.99 66.4339 270.705 66.4339Z" fill="#003AF5"/>
<path d="M169.769 36.7217C170.484 36.7217 171.064 36.1419 171.064 35.4266C171.064 34.7113 170.484 34.1314 169.769 34.1314C169.054 34.1314 168.474 34.7113 168.474 35.4266C168.474 36.1419 169.054 36.7217 169.769 36.7217Z" fill="#003AF5"/>
<path d="M246.516 140.61C247.231 140.61 247.811 140.03 247.811 139.315C247.811 138.599 247.231 138.019 246.516 138.019C245.801 138.019 245.221 138.599 245.221 139.315C245.221 140.03 245.801 140.61 246.516 140.61Z" fill="#003AF5"/>
<path d="M199.357 80.9186C199.357 80.9186 191.729 81.3853 188.387 77.9379C185.035 74.5 187.273 62.7771 189.034 52.1778C190.806 41.5785 196.929 41.4166 200.196 41.5785C203.919 41.769 210.328 43.207 210.614 58.8345C210.614 58.8345 213.871 59.1106 213.68 61.4343C213.49 63.7579 210.614 64.177 210.614 64.177V85.0231" stroke="black" stroke-width="1.5" stroke-miterlimit="10"/>
<path d="M190.739 46.7877H203.71C203.71 46.7877 202.938 58.644 210.614 59.3392C210.614 59.3392 211.366 42.9213 201.062 41.6928C193.453 40.7881 190.739 46.7877 190.739 46.7877Z" fill="black"/>
<path d="M196.386 52.0826L195.977 61.6533" stroke="black" stroke-width="1.5" stroke-miterlimit="10"/>
<path d="M191.958 64.1484C191.987 63.4818 192.482 62.5009 193.625 62.958C194.767 63.4151 196.777 63.7389 197.967 63.3103C199.157 62.8818 199.681 62.6056 200.119 63.3389C200.872 64.6055 200.072 67.1386 195.815 67.0053C192.406 66.872 191.891 65.5007 191.958 64.1484Z" fill="black"/>
<path d="M193.044 63.4913C193.044 63.4913 196.424 65.1197 198.977 63.6913C198.977 63.6913 199.177 64.2531 199.253 64.415C197.377 65.2626 195.453 65.5864 192.872 64.196L193.044 63.4913Z" fill="white"/>
<path d="M250.325 79.0521C247.525 80.5853 245.354 84.0041 244.44 88.3181C243.526 84.0041 241.354 80.5853 238.555 79.0521C241.354 77.5189 243.526 74.1001 244.44 69.7861C245.345 74.1001 247.516 77.5189 250.325 79.0521Z" fill="#EB3464"/>
<path d="M168.464 75.0333C167.245 75.7 166.303 77.176 165.912 79.0521C165.512 77.176 164.569 75.7 163.36 75.0333C164.579 74.3667 165.522 72.8906 165.912 71.0146C166.312 72.8811 167.255 74.3667 168.464 75.0333Z" fill="#EB3464"/>
<path d="M5.1044 54.7586C3.88544 55.4252 2.94265 56.9013 2.5522 58.7773C2.16175 56.9013 1.21896 55.4252 0 54.7586C1.21896 54.0919 2.16175 52.6159 2.5522 50.7398C2.95217 52.6159 3.89497 54.0919 5.1044 54.7586Z" fill="#EB3464"/>
<path d="M194.444 80.2711V83.8137" stroke="black" stroke-miterlimit="10"/>
<path d="M6.70435 38.7597L27.9219 75.5381H73.1092L51.8821 38.7597H6.70435Z" stroke="black" stroke-width="1.5" stroke-miterlimit="10"/>
<path d="M27.9219 75.5381H104.355L109.726 83.0804H32.9691C32.2073 83.0804 31.5121 82.6519 31.1693 81.9757L27.9219 75.5381Z" stroke="black" stroke-width="1.5" stroke-miterlimit="10"/>
<path d="M75.4805 83.0899C75.4805 83.0899 78.6612 88.6419 89.9556 87.8705" stroke="black" stroke-width="1.5" stroke-miterlimit="10"/>
<path d="M58.0436 83.0899C57.9294 85.1279 61.8815 90.4513 81.023 88.5943" stroke="black" stroke-width="1.5" stroke-miterlimit="10"/>
<path d="M65.6145 83.4708C66.7097 86.4421 71.976 90.0989 87.1082 87.9467" stroke="black" stroke-width="1.5" stroke-miterlimit="10"/>
<path d="M81.0229 88.5943C83.8132 88.3372 87.7177 93.2987 87.1082 103.222C85.794 124.611 89.9557 151.257 115.516 155.313" stroke="black" stroke-width="1.5" stroke-miterlimit="10"/>
<path d="M155.322 141.324C155.322 141.324 152.361 149.619 151.456 151.914" stroke="black" stroke-width="1.5" stroke-miterlimit="10"/>
<path d="M138.152 119.83C133.019 125.173 129.105 128.515 122.306 127.896C111.449 126.906 107.612 105.307 107.831 98.0698C108.05 90.8322 104.326 84.6898 99.2788 83.0899" stroke="black" stroke-width="1.5" stroke-miterlimit="10"/>
<path d="M210.623 114.412C204.995 130.201 168.017 123.363 149.942 91.0608C137.771 69.3004 131.734 47.3591 111.345 44.045C99.8693 42.1785 91.9651 48.8256 87.813 56.7679C85.3941 61.4057 83.1847 69.7385 85.4036 70.6051C87.0988 71.2622 88.4701 68.8623 90.3842 64.9578C92.6507 60.3296 95.222 53.2825 95.222 53.2825C95.222 53.2825 91.4127 63.5103 94.403 63.8055C97.3933 64.1008 99.6693 53.9396 99.6693 53.9396C99.6693 53.9396 96.3267 63.6437 99.2884 64.2246C101.631 64.6817 102.412 62.0533 104.717 55.3585C102.945 60.5391 101.593 64.3484 103.84 64.9007C105.64 65.3388 107.793 59.9677 107.793 59.9677C107.793 59.9677 128.563 104.536 139.419 121.944C157.37 150.733 176.473 154.38 192.387 155.78C212.014 157.504 238.602 145.447 238.555 121.944C238.517 105.431 225.927 83.8803 198.853 83.4613C173.845 83.0804 162.113 95.6509 156.332 101.327" stroke="black" stroke-width="1.5" stroke-miterlimit="10"/>
<path d="M77.5659 53.5491L102.345 7.22856" stroke="black" stroke-width="1.5" stroke-miterlimit="10"/>
<path d="M50.8059 27.4462L43.7874 7.22856" stroke="black" stroke-width="1.5" stroke-miterlimit="10"/>
<path d="M120.991 38.7597L132.4 27.4462" stroke="black" stroke-width="1.5" stroke-miterlimit="10"/>
<path d="M113.268 71.5479L131.724 57.7012" stroke="black" stroke-width="1.5" stroke-miterlimit="10"/>
<path d="M87.0701 98.8317L107.602 94.4796" stroke="black" stroke-width="1.5" stroke-miterlimit="10"/>
<path d="M67.6904 41.7023L69.5284 15.1613" stroke="black" stroke-width="1.5" stroke-miterlimit="10"/>
<path d="M102.345 38.7597L112.221 25.913" stroke="black" stroke-width="1.5" stroke-miterlimit="10"/>
<path d="M198.881 55.8061C198.881 55.8061 198.948 53.711 199.929 53.711C200.91 53.711 200.834 55.8061 200.834 55.8061" stroke="black" stroke-width="1.5" stroke-miterlimit="10"/>
<path d="M191.891 55.8061C191.891 55.8061 191.958 53.711 192.939 53.711C193.92 53.711 193.844 55.8061 193.844 55.8061" stroke="black" stroke-width="1.5" stroke-miterlimit="10"/>
<path d="M200.462 83.2613L191.948 122.297" stroke="black" stroke-width="1.5" stroke-miterlimit="10"/>
<path d="M65.4525 120.668C65.5573 117.716 64.7192 114.612 62.148 112.897C59.9577 111.431 57.0436 111.478 54.6437 112.335C47.6252 114.84 44.0254 122.411 44.0635 129.506C44.0921 135.124 46.0634 140.591 48.7489 145.466C51.2916 150.085 54.5104 154.304 58.3197 157.942C65.6049 164.903 74.6328 169.874 84.0512 173.303C94.7362 177.198 106.154 179.121 117.506 179.293C129.619 179.483 141.828 177.636 153.284 173.693C165.465 169.503 176.759 162.96 186.339 154.352C189.425 151.58 192.358 148.676 195.52 146C198.5 143.476 201.586 141.086 204.795 138.876C210.004 135.296 215.556 132.125 221.451 129.82C229.212 126.782 237.679 125.144 246.011 126.268C248.192 126.563 250.887 127.201 253.173 128.03C253.392 128.106 253.611 128.192 253.83 128.277C253.954 128.325 254.506 128.553 254.344 128.487C254.201 128.42 254.658 128.63 254.792 128.687C254.963 128.763 255.134 128.849 255.306 128.925C255.792 129.153 256.268 129.401 256.725 129.668C256.887 129.763 257.039 129.858 257.191 129.953C258.715 130.991 260.144 128.515 258.629 127.487C256.449 126.001 253.735 125.096 251.211 124.411C244.507 122.601 237.393 122.725 230.622 124.087C219.194 126.401 208.671 132.248 199.434 139.2C196.224 141.619 193.139 144.171 190.158 146.857C187.415 149.333 184.797 151.952 181.968 154.333C177.159 158.37 171.912 161.894 166.369 164.856C155.789 170.531 144.095 174.141 132.191 175.617C120.868 177.017 109.288 176.617 98.1169 174.293C88.0509 172.198 78.2135 168.598 69.5189 163.056C61.0814 157.685 54.0628 150.409 49.806 141.276C46.4348 134.029 45.092 124.268 51.0345 118.011C52.0534 116.935 52.9772 116.211 54.3104 115.516C55.2151 115.05 56.6055 114.621 57.4435 114.564C57.7102 114.545 57.9673 114.535 58.234 114.545C58.3768 114.545 58.5101 114.564 58.6435 114.573C58.9958 114.602 58.5006 114.535 58.8435 114.602C59.1101 114.65 59.3577 114.716 59.6148 114.792C60.0624 114.916 59.7672 114.792 60.1481 115.011C60.7957 115.383 60.7005 115.288 61.1957 115.792C61.2909 115.888 61.3766 115.992 61.4623 116.097C61.4814 116.116 61.3957 115.983 61.5575 116.23C61.7194 116.469 61.8623 116.716 61.9861 116.973C62.1099 117.221 62.0908 117.192 62.2242 117.611C62.3194 117.926 62.3956 118.249 62.4622 118.583C62.5575 119.087 62.586 119.916 62.5575 120.64C62.5289 122.506 65.3859 122.506 65.4525 120.668Z" fill="#003AF5"/>
<path d="M23.8934 61.5962C18.7414 65.0626 14.856 70.7003 11.999 76.0999C7.76124 84.1184 5.49473 93.2416 6.04707 102.336C6.56132 110.764 9.06591 119.592 15.1036 125.744C19.6176 130.344 25.6457 133.286 31.8929 134.696C37.9782 136.077 44.4634 136.162 50.5392 134.686C55.4341 133.496 60.4718 131.144 63.405 126.877C65.8048 123.392 66.4714 117.897 63.7478 114.383C61.2718 111.193 56.9292 111.25 53.539 112.783C49.1964 114.735 46.1585 118.954 44.8729 123.449C42.8921 130.353 44.8158 137.715 47.9584 143.952C49.0536 146.133 50.3297 148.209 51.7105 150.228C52.7486 151.733 55.2246 150.304 54.177 148.79C50.0249 142.743 46.5109 135.581 46.968 128.049C47.2347 123.687 49.225 119.249 52.539 116.716C54.0151 115.592 55.3008 114.973 57.053 114.669C58.1672 114.469 59.529 114.659 60.5671 115.288C60.6337 115.326 60.6909 115.373 60.748 115.411C61.0527 115.621 60.529 115.221 60.8147 115.459C60.9289 115.554 61.0432 115.659 61.148 115.764C61.2813 115.897 61.4146 116.04 61.5384 116.192C61.3384 115.945 61.6717 116.402 61.7289 116.488C62.1765 117.211 62.3193 117.659 62.5003 118.64C62.7955 120.259 62.5384 122.43 61.8051 123.963C59.9766 127.772 55.9579 130.058 51.9581 131.344C46.7395 133.02 41.0541 133.315 35.645 132.525C29.9216 131.687 24.2363 129.62 19.6652 126.03C13.9322 121.516 11.0562 115.116 9.64682 108.079C7.89456 99.2983 9.03734 90.1847 12.4181 81.9376C14.8274 76.0523 18.3986 70.3194 23.0745 65.9483C23.8553 65.215 24.541 64.6436 25.341 64.1008C26.8456 63.0437 25.4171 60.5677 23.8934 61.5962Z" fill="#EB3464"/>
</g>
<defs>
<clipPath id="clip0_1001_30994">
<rect width="272" height="172.312" fill="white" transform="translate(0 7)"/>
</clipPath>
</defs>
</svg>
