<svg viewBox="0 0 272 195" fill="none" xmlns="http://www.w3.org/2000/svg">
<g clip-path="url(#clip0_1001_31061)">
<path d="M44.5566 98.1525C44.5566 100.878 50.8284 120.778 61.1836 124.597" stroke="black" stroke-width="1.5" stroke-miterlimit="10"/>
<path d="M225.704 97.4492C226.183 100.136 223.487 120.827 213.952 126.395" stroke="black" stroke-width="1.5" stroke-miterlimit="10"/>
<path d="M118.137 134.835L124.057 141.81L129.225 134.767L135.145 141.742L141.759 135.08" fill="black"/>
<path d="M128.922 163.664L129.225 134.767" stroke="black" stroke-width="1.5" stroke-miterlimit="10"/>
<path d="M77.8693 76.1135C78.4628 76.1135 78.9439 75.6324 78.9439 75.0389C78.9439 74.4455 78.4628 73.9643 77.8693 73.9643C77.2758 73.9643 76.7947 74.4455 76.7947 75.0389C76.7947 75.6324 77.2758 76.1135 77.8693 76.1135Z" fill="#003AF5"/>
<path d="M123.422 134.288V131.465" stroke="black" stroke-width="1.5" stroke-miterlimit="10"/>
<path d="M127.789 131.377C127.789 131.377 120.335 131.836 117.063 128.466C113.79 125.105 115.968 113.656 117.698 103.291C119.427 92.9359 125.415 92.7698 128.6 92.9359C132.234 93.1215 138.506 94.5282 138.779 109.797C138.779 109.797 141.964 110.071 141.778 112.337C141.593 114.613 138.779 115.014 138.779 115.014V134.64" stroke="black" stroke-width="1.5" stroke-miterlimit="10"/>
<path d="M53.1829 127.831C53.1829 127.831 129.792 143.921 218.124 127.284" stroke="black" stroke-width="1.5" stroke-miterlimit="10"/>
<path d="M36.4776 132.735C41.9287 132.735 87.1888 115.287 95.9125 110.921C100.817 108.469 102.458 105.88 101.5 104.786C100.543 103.692 87.5991 106.417 87.5991 106.417C87.5991 106.417 101.09 101.787 100.69 99.5984C100.084 96.355 84.1994 101.23 84.1994 101.23C84.1994 101.23 99.8788 95.9154 99.6052 91.959C99.3317 88.0025 82.8415 95.7787 82.8415 95.7787C82.8415 95.7787 97.4267 89.3702 97.0164 85.6872C96.6061 82.0043 85.2936 88.276 85.2936 88.276C85.2936 88.276 77.1169 94.2742 61.0272 95.9057C44.9376 97.5371 -0.0391909 101.63 0.507877 131.895C1.05494 162.159 58.8487 161.886 58.8487 161.886" stroke="black" stroke-width="1.5" stroke-miterlimit="10"/>
<path d="M72.0566 93.8932C73.2192 93.0726 79.0122 88.9403 81.5326 83.7334C82.6854 81.3497 87.4625 83.03 85.284 88.2956" stroke="black" stroke-width="1.5" stroke-miterlimit="10"/>
<path d="M235.522 132.735C230.071 132.735 184.811 115.287 176.087 110.921C171.183 108.469 169.542 105.88 170.5 104.786C171.457 103.692 184.401 106.417 184.401 106.417C184.401 106.417 170.91 101.787 171.31 99.5984C171.916 96.355 187.801 101.23 187.801 101.23C187.801 101.23 172.121 95.9154 172.395 91.959C172.668 88.0025 189.158 95.7787 189.158 95.7787C189.158 95.7787 174.573 89.3702 174.984 85.6872C175.394 82.0043 186.706 88.276 186.706 88.276C186.706 88.276 194.883 94.2742 210.973 95.9057C227.062 97.5371 272.039 101.63 271.492 131.895C270.945 162.159 213.151 161.886 213.151 161.886" stroke="black" stroke-width="1.5" stroke-miterlimit="10"/>
<path d="M199.943 93.8932C198.781 93.0726 192.988 88.9403 190.467 83.7334C189.315 81.3497 184.538 83.03 186.716 88.2956" stroke="black" stroke-width="1.5" stroke-miterlimit="10"/>
<path d="M119.358 98.0255H132.039C132.039 98.0255 131.286 109.612 138.789 110.295C138.789 110.295 139.522 94.2547 129.45 93.0531C122.016 92.1641 119.358 98.0255 119.358 98.0255Z" fill="black"/>
<path d="M121.4 106.075C121.891 106.075 122.289 105.677 122.289 105.186C122.289 104.695 121.891 104.297 121.4 104.297C120.909 104.297 120.511 104.695 120.511 105.186C120.511 105.677 120.909 106.075 121.4 106.075Z" fill="black"/>
<path d="M128.356 106.271C128.847 106.271 129.245 105.873 129.245 105.382C129.245 104.891 128.847 104.493 128.356 104.493C127.865 104.493 127.467 104.891 127.467 105.382C127.467 105.873 127.865 106.271 128.356 106.271Z" fill="black"/>
<path d="M124.878 103.203L124.477 112.552" stroke="black" stroke-width="1.5" stroke-miterlimit="10"/>
<path d="M120.55 114.994C120.58 114.34 121.058 113.382 122.172 113.822C123.286 114.262 125.259 114.584 126.421 114.164C127.584 113.744 128.102 113.47 128.522 114.193C129.254 115.424 128.473 117.906 124.311 117.769C120.99 117.661 120.492 116.313 120.55 114.994Z" fill="black"/>
<path d="M121.615 114.35C121.615 114.35 124.917 115.942 127.408 114.545C127.408 114.545 127.603 115.092 127.682 115.248C125.855 116.079 123.969 116.391 121.449 115.033L121.615 114.35Z" fill="white"/>
<path d="M12.9344 113.969C9.66172 115.874 5.03118 125.965 6.11555 132.784" stroke="black" stroke-width="1.5" stroke-miterlimit="10"/>
<path d="M165.801 82.6686C163.476 83.9385 161.678 86.7716 160.926 90.3471C160.174 86.7716 158.366 83.9385 156.051 82.6686C158.376 81.3986 160.174 78.5656 160.926 74.9901C161.678 78.5753 163.476 81.4084 165.801 82.6686Z" fill="#EB3464"/>
<path d="M63.5478 46.4351C62.4244 47.0506 61.5452 48.428 61.1837 50.1571C60.8125 48.4182 59.943 47.0506 58.8196 46.4351C59.943 45.8197 60.8222 44.4422 61.1837 42.7131C61.5549 44.4422 62.4244 45.8197 63.5478 46.4351Z" fill="#EB3464"/>
<path d="M150.991 68.015L121.703 71.864C112.422 73.0851 103.914 66.5496 102.692 57.269C101.471 47.9884 108.007 39.4795 117.287 38.2584L146.575 34.4094C155.856 33.1883 164.364 39.7238 165.586 49.0044C166.807 58.285 160.271 66.7938 150.991 68.015Z" stroke="black" stroke-width="1.5" stroke-miterlimit="10"/>
<path d="M149.77 69.8809C160.15 69.8809 168.565 61.4658 168.565 51.0852C168.565 40.7046 160.15 32.2895 149.77 32.2895C139.389 32.2895 130.974 40.7046 130.974 51.0852C130.974 61.4658 139.389 69.8809 149.77 69.8809Z" fill="#EB3464"/>
<path d="M181.099 45.4191C186.257 42.0293 191.405 38.6394 196.563 35.2398C197.306 34.7513 198.048 34.2629 198.801 33.7744C200.373 32.7389 198.898 30.1989 197.325 31.2442C192.167 34.6341 187.019 38.024 181.861 41.4236C181.119 41.912 180.376 42.4005 179.624 42.889C178.051 43.9245 179.516 46.4644 181.099 45.4191Z" fill="#003AF5"/>
<path d="M178.324 57.3667C188.738 57.3667 199.152 57.3667 209.566 57.3667C211.031 57.3667 212.487 57.3667 213.952 57.3667C215.838 57.3667 215.838 54.436 213.952 54.436C203.538 54.436 193.125 54.436 182.711 54.436C181.245 54.436 179.79 54.436 178.324 54.436C176.429 54.436 176.429 57.3667 178.324 57.3667Z" fill="#EB3464"/>
<path d="M88.5664 49.7664C83.4083 46.3765 78.26 42.9866 73.102 39.587C72.3595 39.0986 71.6171 38.6101 70.8649 38.1216C69.2823 37.0861 67.8169 39.6163 69.3897 40.6518C74.5478 44.0417 79.6961 47.4316 84.8542 50.8312C85.5966 51.3196 86.3391 51.8081 87.0913 52.2966C88.6641 53.3418 90.1392 50.8019 88.5664 49.7664Z" fill="#003AF5"/>
<path d="M86.6124 61.118C76.6578 64.1757 66.7031 67.2237 56.7386 70.2814C55.3417 70.7112 53.9447 71.1411 52.5477 71.5709C50.7502 72.118 51.5122 74.951 53.3292 74.3942C63.2839 71.3365 73.2386 68.2885 83.203 65.2308C84.6 64.801 85.997 64.3711 87.394 63.9413C89.1915 63.3942 88.4295 60.5612 86.6124 61.118Z" fill="#EB3464"/>
</g>
<defs>
<clipPath id="clip0_1001_31061">
<rect width="272" height="132.674" fill="white" transform="translate(0 31)"/>
</clipPath>
</defs>
</svg>
