<svg viewBox="0 0 60 60" fill="none" xmlns="http://www.w3.org/2000/svg">
<g clip-path="url(#clip0_1530_1329)">
<path d="M57.5401 23.17C57.7201 27.53 56.1701 31.95 52.8401 35.27L37.9401 50.17C36.8301 51.28 35.0701 51.54 33.7801 50.66C32.0401 49.48 31.8701 47.09 33.2801 45.68L29.6801 49.28C28.4401 50.52 26.4101 50.7 25.1101 49.53C23.7201 48.28 23.6801 46.14 24.9801 44.84L23.2801 46.54C22.4201 47.4 21.2001 47.66 20.1101 47.35L20.0601 47.4C18.8201 48.64 18.6401 50.67 19.8101 51.97C21.0601 53.36 23.2001 53.4 24.5001 52.1L26.2001 50.4C24.9001 51.7 24.9401 53.84 26.3301 55.09C27.6301 56.26 29.6701 56.08 30.9001 54.84L34.5001 51.24C33.0901 52.65 33.2501 55.04 35.0001 56.22C36.2901 57.1 38.0601 56.83 39.1601 55.73L54.0601 40.83C58.8301 36.05 59.9901 29.03 57.5401 23.17Z" fill="#EB3464"/>
<path d="M29.5901 11.73C23.2801 5.42 13.0401 5.42 6.73006 11.73C0.420059 18.04 0.420059 28.28 6.73006 34.59L18.5701 46.43" stroke="#EB3464" stroke-width="2" stroke-miterlimit="10" stroke-linecap="round"/>
<path d="M16.8202 29.9C18.0702 31.29 20.2102 31.33 21.5102 30.03L16.7302 34.81C15.4702 36.07 15.4702 38.12 16.7302 39.38C17.9902 40.64 20.0402 40.64 21.3002 39.38L18.8502 41.83C17.6102 43.07 17.4302 45.1 18.6002 46.4C19.8502 47.79 21.9902 47.83 23.2902 46.53L24.9902 44.83C23.6902 46.13 23.7302 48.27 25.1202 49.52C26.4202 50.69 28.4602 50.51 29.6902 49.27L33.2902 45.67C31.8802 47.08 32.0402 49.47 33.7902 50.65C35.0802 51.53 36.8502 51.26 37.9502 50.16L52.8502 35.26C59.1602 28.95 59.1602 18.71 52.8502 12.4C46.5402 6.08998 36.3002 6.08998 29.9902 12.4L17.0602 25.32C15.8302 26.56 15.6402 28.6 16.8202 29.9Z" stroke="black" stroke-width="2" stroke-miterlimit="10"/>
<path d="M33.2803 45.68L42.5103 36.45" stroke="black" stroke-width="2" stroke-miterlimit="10"/>
<path d="M24.9802 44.84L37.9402 31.88" stroke="black" stroke-width="2" stroke-miterlimit="10"/>
<path d="M21.29 39.38L33.36 27.31" stroke="black" stroke-width="2" stroke-miterlimit="10"/>
<path d="M21.5103 30.02L28.7903 22.74" stroke="black" stroke-width="2" stroke-miterlimit="10"/>
<path d="M40.54 11.56C47.33 11.56 52.84 17.07 52.84 23.86" stroke="#003AF5" stroke-width="2" stroke-miterlimit="10" stroke-linecap="round"/>
</g>
<defs>
<clipPath id="clip0_1530_1329">
<rect width="57.79" height="50.75" fill="white" transform="translate(1 6)"/>
</clipPath>
</defs>
</svg>
