<svg width="56" height="56" viewBox="0 0 56 56" fill="none" xmlns="http://www.w3.org/2000/svg">
<rect width="56" height="56" rx="28" fill="#FFF4E5"/>
<path d="M28 25.75V29.5" stroke="#FF8A00" stroke-width="1.5" stroke-linecap="round" stroke-linejoin="round"/>
<path d="M26.7068 19.7502L18.4568 34.0002C18.3254 34.2279 18.2561 34.4861 18.2559 34.7489C18.2556 35.0118 18.3245 35.2701 18.4555 35.498C18.5865 35.7258 18.7751 35.9153 19.0024 36.0473C19.2297 36.1793 19.4877 36.2493 19.7506 36.2502H36.2506C36.5134 36.2493 36.7714 36.1793 36.9987 36.0473C37.226 35.9153 37.4146 35.7258 37.5457 35.498C37.6767 35.2701 37.7455 35.0118 37.7453 34.7489C37.7451 34.4861 37.6758 34.2279 37.5443 34.0002L29.2943 19.7502C29.1639 19.5223 28.9755 19.3329 28.7483 19.2011C28.5212 19.0694 28.2632 19 28.0006 19C27.738 19 27.48 19.0694 27.2528 19.2011C27.0256 19.3329 26.8373 19.5223 26.7068 19.7502V19.7502Z" stroke="#FF8A00" stroke-width="1.5" stroke-linecap="round" stroke-linejoin="round"/>
<path d="M28 34C28.6213 34 29.125 33.4963 29.125 32.875C29.125 32.2537 28.6213 31.75 28 31.75C27.3787 31.75 26.875 32.2537 26.875 32.875C26.875 33.4963 27.3787 34 28 34Z" fill="#FF8A00"/>
</svg>
