<svg viewBox="0 0 60 60" fill="none" xmlns="http://www.w3.org/2000/svg">
<mask id="path-1-inside-1_882_20772" fill="white">
<path d="M31.1018 7.25556C30.85 6.87497 30.7151 6.64844 30.7151 6.64844C30.7151 6.64844 30.6881 6.68468 30.6521 6.75718C30.796 6.92028 30.9489 7.08339 31.1018 7.25556Z"/>
</mask>
<path d="M31.1018 7.25556C30.85 6.87497 30.7151 6.64844 30.7151 6.64844C30.7151 6.64844 30.6881 6.68468 30.6521 6.75718C30.796 6.92028 30.9489 7.08339 31.1018 7.25556Z" fill="#FF0062"/>
<path d="M31.1018 7.25556L30.354 7.91955L31.9357 6.70376L31.1018 7.25556ZM30.7151 6.64844L31.5743 6.1368L30.8076 4.84937L29.9129 6.05132L30.7151 6.64844ZM30.6521 6.75718L29.7563 6.31266L29.4576 6.91472L29.9022 7.41873L30.6521 6.75718ZM31.9357 6.70376C31.8149 6.52106 31.7228 6.37643 31.6617 6.27886C31.6312 6.23009 31.6085 6.19311 31.5938 6.16905C31.5865 6.15702 31.5811 6.14823 31.5779 6.14281C31.5762 6.14009 31.5751 6.13823 31.5745 6.13722C31.5742 6.13672 31.574 6.13643 31.574 6.13636C31.574 6.13632 31.574 6.13634 31.574 6.13642C31.574 6.13646 31.5741 6.13651 31.5741 6.13657C31.5741 6.1366 31.5742 6.13664 31.5742 6.13668C31.5742 6.1367 31.5742 6.13673 31.5742 6.13674C31.5742 6.13677 31.5743 6.1368 30.7151 6.64844C29.8558 7.16007 29.8559 7.16011 29.8559 7.16014C29.8559 7.16016 29.8559 7.16019 29.8559 7.16022C29.856 7.16027 29.856 7.16033 29.856 7.16039C29.8561 7.16051 29.8562 7.16064 29.8563 7.16079C29.8565 7.16108 29.8567 7.16143 29.8569 7.16184C29.8574 7.16265 29.858 7.16368 29.8588 7.16493C29.8602 7.16743 29.8623 7.1708 29.8648 7.17502C29.8699 7.18348 29.8771 7.19535 29.8863 7.21051C29.9048 7.24082 29.9316 7.28426 29.9662 7.33969C30.0356 7.45054 30.1369 7.60948 30.2678 7.80735L31.9357 6.70376ZM30.7151 6.64844C29.9129 6.05132 29.9128 6.05145 29.9127 6.05157C29.9127 6.05161 29.9126 6.05174 29.9125 6.05182C29.9124 6.05199 29.9123 6.05216 29.9121 6.05233C29.9119 6.05267 29.9116 6.05301 29.9114 6.05335C29.9109 6.05404 29.9104 6.05474 29.9098 6.05545C29.9088 6.05687 29.9077 6.05833 29.9066 6.05984C29.9044 6.06285 29.9021 6.06604 29.8997 6.06939C29.895 6.0761 29.8898 6.0835 29.8843 6.0916C29.8732 6.10778 29.8608 6.12674 29.8473 6.14849C29.8203 6.19198 29.7891 6.2467 29.7563 6.31266L31.5479 7.20169C31.5511 7.19516 31.5513 7.19551 31.5469 7.20275C31.5446 7.20638 31.5412 7.21175 31.5363 7.21887C31.5339 7.22243 31.5311 7.22644 31.5279 7.23088C31.5263 7.2331 31.5246 7.23544 31.5229 7.23788C31.522 7.23911 31.5211 7.24036 31.5201 7.24164C31.5196 7.24227 31.5192 7.24292 31.5187 7.24357C31.5184 7.2439 31.5182 7.24423 31.5179 7.24456C31.5178 7.24472 31.5177 7.24489 31.5176 7.24506C31.5175 7.24514 31.5174 7.24526 31.5174 7.2453C31.5173 7.24543 31.5172 7.24555 30.7151 6.64844ZM29.9022 7.41873C29.9802 7.50711 30.0595 7.59429 30.1343 7.67637C30.2107 7.76022 30.2826 7.83911 30.354 7.91955L31.8495 6.59157C31.768 6.49984 31.6871 6.41109 31.6128 6.32957C31.537 6.24627 31.4679 6.17035 31.402 6.09562L29.9022 7.41873Z" fill="#FF0062" mask="url(#path-1-inside-1_882_20772)"/>
<path d="M28.2325 55.6005L28.4756 55.7359L28.7188 55.6006C45.8041 46.0974 48.878 26.7501 49.4319 19.2971C49.8752 19.3708 50.3286 19.437 50.7919 19.4923C50.79 19.6789 50.7855 19.9226 50.7758 20.2185C50.751 20.9743 50.6922 22.0702 50.5559 23.4232C50.2831 26.1303 49.7008 29.8613 48.4633 33.9556C46.0063 42.0845 40.9819 51.6 30.7151 57.4174C29.0989 56.5012 27.6144 55.4928 26.2499 54.4125C26.8888 54.8236 27.5494 55.2201 28.2325 55.6005Z" fill="#FF0062" stroke="#FF0062"/>
<path d="M12.1961 5.88872C12.4671 6.45397 12.8179 6.94396 13.2356 7.31951C12.818 7.69619 12.4688 8.18758 12.1981 8.75368C11.9274 8.18738 11.578 7.69585 11.1603 7.31912C11.577 6.9433 11.9257 6.45326 12.1961 5.88872Z" fill="#FF0062" stroke="#FF0062"/>
<path d="M50.0952 45.4302C50.5677 46.6179 51.2537 47.618 52.1039 48.2949C51.2541 48.9715 50.5684 49.9709 50.096 51.1577C49.6235 49.9682 48.9372 48.9706 48.0869 48.2947C48.9369 47.6178 49.6228 46.6177 50.0952 45.4302Z" fill="#FF0062" stroke="#FF0062"/>
<path d="M28.4757 3.82117C28.4757 3.82117 34.69 14.7674 49.0521 16.2173C49.0521 16.2173 49.6456 43.3836 28.4757 55.1636C7.30583 43.3836 7.89938 16.2263 7.89938 16.2263C22.2615 14.7674 28.4757 3.82117 28.4757 3.82117Z" stroke="black" stroke-width="2" stroke-miterlimit="10"/>
<path d="M28.4757 36.7868C32.916 36.7868 36.5156 33.1599 36.5156 28.6859C36.5156 24.2118 32.916 20.5849 28.4757 20.5849C24.0354 20.5849 20.4358 24.2118 20.4358 28.6859C20.4358 33.1599 24.0354 36.7868 28.4757 36.7868Z" stroke="black" stroke-width="2" stroke-miterlimit="10"/>
<path d="M24.5457 26.439L28.4217 31.1963L38.611 20.0416" stroke="#FF0062" stroke-width="2" stroke-miterlimit="10" stroke-linecap="round"/>
<path d="M30.7148 49.183C30.7148 49.183 37.4867 44.2717 40.0317 38.5358Z" fill="#002BFF"/>
<path d="M30.7148 49.183C30.7148 49.183 37.4867 44.2717 40.0317 38.5358" stroke="#002BFF" stroke-width="2" stroke-miterlimit="10" stroke-linecap="round"/>
<path d="M12.198 19.3799C12.198 19.3799 19.5724 18.2926 23.7182 14.1424Z" fill="#002BFF"/>
<path d="M12.198 19.3799C12.198 19.3799 19.5724 18.2926 23.7182 14.1424" stroke="#002BFF" stroke-width="2" stroke-miterlimit="10" stroke-linecap="round"/>
</svg>
