<svg viewBox="0 0 60 60" fill="none" xmlns="http://www.w3.org/2000/svg">
<g filter="url(#filter0_d_383_9456)">
<g clip-path="url(#clip0_383_9456)">
<rect x="6" y="2" width="48" height="48" rx="4.69863" fill="white"/>
<path d="M54 2H6V50H54V2Z" fill="#000000"/>
<path d="M44.6581 15.6929H34.7185C33.4281 15.6929 32.3821 16.7389 32.3821 18.0293V18.0305C32.3821 19.3208 33.4281 20.3669 34.7185 20.3669H44.6581C45.9484 20.3669 46.9945 19.3208 46.9945 18.0305V18.0293C46.9945 16.7389 45.9484 15.6929 44.6581 15.6929Z" fill="#002BFF"/>
<path d="M44.6821 20.3669C45.9718 20.3669 47.0173 19.3214 47.0173 18.0317C47.0173 16.742 45.9718 15.6965 44.6821 15.6965C43.3924 15.6965 42.3469 16.742 42.3469 18.0317C42.3469 19.3214 43.3924 20.3669 44.6821 20.3669Z" fill="#FF0062" stroke="#FF0062" stroke-width="0.06125" stroke-miterlimit="10"/>
<path d="M17.7432 19.1188L15.0108 19.0852L14.9832 21.3604L13.3872 21.34L13.3584 23.734L14.9532 23.7532L14.8716 30.3724L17.6052 30.406L17.6868 23.7868L19.4172 23.8072L19.446 21.4144L17.7156 21.394L17.7432 19.1188Z" fill="white"/>
<path d="M27.648 21.9318C26.8792 21.5261 26.025 21.3089 25.1558 21.2983C24.2866 21.2876 23.4273 21.4838 22.6488 21.8706C21.9255 22.2471 21.3194 22.8149 20.8968 23.5122C20.4614 24.2459 20.2341 25.0843 20.2392 25.9374C20.2151 26.7808 20.4226 27.6146 20.8392 28.3482C21.2442 29.057 21.8367 29.6403 22.5516 30.0342C23.3203 30.4394 24.1743 30.6563 25.0432 30.6669C25.9121 30.6776 26.7712 30.4817 27.5496 30.0954C28.2697 29.7177 28.8727 29.15 29.2932 28.4538C29.7265 27.7307 29.9539 26.9029 29.9508 26.0598C29.9772 25.2056 29.7697 24.3604 29.3508 23.6154C28.9466 22.91 28.358 22.328 27.648 21.9318ZM27.168 26.025C27.1808 26.4363 27.0882 26.844 26.8992 27.2094C26.7264 27.5442 26.4691 27.828 26.1528 28.0326C25.828 28.228 25.4552 28.329 25.0762 28.3243C24.6973 28.3197 24.3271 28.2095 24.0072 28.0062C23.6914 27.7966 23.4371 27.5067 23.2704 27.1662C23.0895 26.7953 23.0014 26.386 23.0136 25.9734C23.0093 25.5499 23.1077 25.1315 23.3004 24.7542C23.4752 24.4175 23.7366 24.1333 24.0576 23.931C24.379 23.731 24.752 23.6297 25.1304 23.6394C25.5129 23.6349 25.8884 23.7425 26.2104 23.949C26.5248 24.1578 26.7766 24.4482 26.9388 24.789C27.1214 25.1739 27.2039 25.5986 27.1788 26.0238L27.168 26.025Z" fill="white"/>
<g style="mix-blend-mode:multiply" opacity="0.18">
<g style="mix-blend-mode:multiply" opacity="0.18">
<path d="M39.2484 22.0819C38.6427 21.6757 37.9293 21.46 37.2 21.4627C36.6941 21.454 36.1913 21.5433 35.7192 21.7255C35.2858 21.8879 34.8877 22.1324 34.5468 22.4455L34.4412 22.5523L34.3968 21.6043L31.8 21.5659L31.6428 34.3135L34.3932 34.3471L34.4496 29.7127C35.062 30.3086 35.8561 30.6825 36.7056 30.7747C37.555 30.8669 38.4109 30.6722 39.1368 30.2215C39.757 29.8151 40.2564 29.2493 40.5828 28.5835C40.9467 27.8408 41.1332 27.0238 41.1276 26.1967C41.1547 25.3561 40.988 24.5206 40.6404 23.7547C40.3369 23.0811 39.8557 22.5028 39.2484 22.0819ZM38.208 27.3919C38.0565 27.7264 37.8109 28.0095 37.5012 28.2067C37.181 28.3995 36.8116 28.495 36.438 28.4815C36.0567 28.4857 35.6821 28.3813 35.358 28.1803C35.0485 27.9763 34.8047 27.6871 34.656 27.3475C34.4834 26.9586 34.4013 26.5356 34.416 26.1103C34.4081 25.6781 34.4983 25.2498 34.68 24.8575C34.8399 24.5245 35.0892 24.2424 35.4 24.0427C35.728 23.8447 36.1069 23.7475 36.4896 23.7631C36.865 23.7583 37.2333 23.8662 37.5468 24.0727C37.8505 24.2818 38.0882 24.5732 38.232 24.9127C38.3989 25.3078 38.4779 25.7345 38.4636 26.1631C38.4687 26.5864 38.3815 27.0058 38.208 27.3919Z" fill="black"/>
</g>
</g>
<path d="M39.2316 22.0817C38.6266 21.6759 37.9141 21.4602 37.1856 21.4625C36.6793 21.4539 36.1761 21.5431 35.7036 21.7253C35.2706 21.8878 34.873 22.1323 34.5324 22.4453C34.4952 22.4813 34.4604 22.5173 34.4268 22.5521L34.3824 21.6041L31.7856 21.5705L31.6296 34.3181L34.3788 34.3517L34.4364 29.7173C35.049 30.3118 35.8428 30.6843 36.6915 30.7756C37.5402 30.867 38.395 30.6718 39.12 30.2213C39.7402 29.8148 40.2397 29.2491 40.566 28.5833C40.9294 27.8404 41.1159 27.0235 41.1108 26.1965C41.1375 25.3558 40.9704 24.5202 40.6224 23.7545C40.3198 23.0806 39.8389 22.5022 39.2316 22.0817ZM38.1912 27.3917C38.0397 27.7261 37.7941 28.0092 37.4844 28.2065C37.1638 28.3994 36.794 28.4949 36.42 28.4813C36.0387 28.4859 35.664 28.3814 35.34 28.1801C35.0301 27.9762 34.7859 27.687 34.6368 27.3473C34.4648 26.9582 34.3827 26.5353 34.3968 26.1101C34.3909 25.6776 34.4828 25.2493 34.6656 24.8573C34.8253 24.5241 35.0746 24.2419 35.3856 24.0425C35.7136 23.8445 36.0925 23.7472 36.4752 23.7629C36.8503 23.7582 37.2181 23.8661 37.5312 24.0725C37.835 24.2818 38.073 24.5731 38.2176 24.9125C38.3762 25.3074 38.4549 25.7298 38.4494 26.1553C38.4438 26.5808 38.354 27.001 38.1852 27.3917H38.1912Z" fill="white"/>
<path d="M43.1035 21.7031L42.9934 30.7156L45.7268 30.749L45.8369 21.7364L43.1035 21.7031Z" fill="white"/>
</g>
</g>
<defs>
<filter id="filter0_d_383_9456" x="0" y="0" width="60" height="60" filterUnits="userSpaceOnUse" color-interpolation-filters="sRGB">
<feFlood flood-opacity="0" result="BackgroundImageFix"/>
<feColorMatrix in="SourceAlpha" type="matrix" values="0 0 0 0 0 0 0 0 0 0 0 0 0 0 0 0 0 0 127 0" result="hardAlpha"/>
<feOffset dy="4"/>
<feGaussianBlur stdDeviation="3"/>
<feComposite in2="hardAlpha" operator="out"/>
<feColorMatrix type="matrix" values="0 0 0 0 0 0 0 0 0 0 0 0 0 0 0 0 0 0 0.09 0"/>
<feBlend mode="normal" in2="BackgroundImageFix" result="effect1_dropShadow_383_9456"/>
<feBlend mode="normal" in="SourceGraphic" in2="effect1_dropShadow_383_9456" result="shape"/>
</filter>
<clipPath id="clip0_383_9456">
<rect x="6" y="2" width="48" height="48" rx="4.69863" fill="white"/>
</clipPath>
</defs>
</svg>
