<svg width="32" height="21" viewBox="0 0 32 21" fill="none" xmlns="http://www.w3.org/2000/svg">
<g id="Single_Euro_Payments_Area_logo 1">
<rect y="0.416992" width="32" height="20" rx="4" fill="#10298E"/>
<g id="Group 1">
<path id="path5689" d="M9.41557 9.50859H7.77348C7.77348 9.23909 7.74178 9.05829 7.6787 8.96617C7.58096 8.83002 7.31131 8.76178 6.86991 8.76178C6.44116 8.76178 6.15699 8.80097 6.01834 8.87951C5.87969 8.95836 5.81021 9.12964 5.81021 9.39336C5.81021 9.63209 5.87173 9.78948 5.99492 9.86474C6.08314 9.91829 6.19977 9.94967 6.34498 9.95904L6.67615 9.98246C7.38595 10.0295 7.82922 10.0627 8.00597 10.0816C8.56728 10.1381 8.97417 10.2874 9.22664 10.5293C9.42525 10.718 9.54376 10.9647 9.58154 11.2692C9.60371 11.4514 9.61464 11.6577 9.61464 11.8867C9.61464 12.4148 9.56421 12.8014 9.4635 13.0463C9.28067 13.496 8.86987 13.78 8.2308 13.8993C7.96303 13.9497 7.55348 13.9749 7.00247 13.9749C6.08283 13.9749 5.44204 13.9202 5.08012 13.8102C4.63606 13.6754 4.34315 13.4023 4.20154 12.9912C4.12253 12.7623 4.0835 12.381 4.0835 11.8474H5.72559C5.72559 11.9068 5.72574 11.9524 5.72574 11.9838C5.72574 12.2686 5.80756 12.4516 5.97103 12.5333C6.08423 12.5895 6.22085 12.619 6.38152 12.6226H6.9853C7.29336 12.6226 7.48993 12.6068 7.57472 12.5751C7.7257 12.5158 7.82485 12.4202 7.87216 12.288C7.89729 12.2065 7.90979 12.1012 7.90979 11.9723C7.90979 11.6836 7.80439 11.5079 7.59392 11.4448C7.51507 11.42 7.14909 11.3852 6.4955 11.3413C5.97057 11.3038 5.60599 11.2678 5.40192 11.2328C4.86434 11.1323 4.506 10.9254 4.32723 10.6114C4.17 10.3447 4.09146 9.94109 4.09146 9.40101C4.09146 8.9899 4.13393 8.66014 4.21887 8.41219C4.30381 8.16409 4.44074 7.97579 4.62966 7.84698C4.90649 7.64915 5.26077 7.53314 5.69186 7.49848C6.05066 7.4671 6.44866 7.45117 6.88647 7.45117C7.57565 7.45117 8.06686 7.49083 8.35962 7.56937C9.07425 7.76142 9.4315 8.29915 9.4315 9.18289C9.4315 9.25533 9.42619 9.36369 9.41557 9.50859Z" fill="white"/>
<path id="path5693" d="M16.6358 13.9754V7.41699H19.2085H19.6122H19.9244C20.3754 7.41699 20.7196 7.45368 20.9561 7.52738C21.497 7.69679 21.8598 8.04388 22.0458 8.56819C22.1417 8.84346 22.1897 9.25785 22.1897 9.81119C22.1897 10.4765 22.1365 10.9544 22.0311 11.2456C21.8202 11.8211 21.3861 12.1528 20.7305 12.2387C20.6534 12.2516 20.3253 12.263 19.7462 12.2724L19.4533 12.2821H18.4009V13.9754H16.6358ZM18.4009 10.7607H19.5012C19.8502 10.7482 20.0624 10.7213 20.1387 10.6793C20.243 10.622 20.3131 10.5071 20.348 10.3349C20.3703 10.2203 20.3814 10.0498 20.3814 9.82337C20.3814 9.54592 20.3592 9.34029 20.3147 9.20601C20.2513 9.01786 20.0992 8.90341 19.8585 8.86173C19.8107 8.85548 19.6967 8.85205 19.5161 8.85205H18.4009V10.7607Z" fill="white"/>
<path id="path5697" d="M25.9586 12.842H23.5986L23.2814 13.9754H21.4553L23.4259 7.41699H26.0885L28.0831 13.9754H26.2953L25.9586 12.842ZM25.608 11.5643L24.781 8.72136L23.9784 11.5643H25.608Z" fill="white"/>
<path id="path5701" d="M14.1997 8.33996C14.9277 8.33996 15.5775 8.67534 16.0045 9.20059L16.385 8.38477C15.79 7.82237 14.9801 7.47559 14.0869 7.47559C12.696 7.47559 11.5062 8.3156 11.018 9.50474H10.276L9.83791 10.4439H10.7924C10.7852 10.531 10.7805 10.6182 10.7805 10.7071C10.7805 10.8147 10.7861 10.9212 10.7967 11.0263H10.3171L9.87913 11.9658H11.0408C11.5429 13.1248 12.7179 13.9384 14.0869 13.9384C14.7768 13.9384 15.417 13.7317 15.9471 13.3785V12.2271C15.5202 12.7132 14.8958 13.0203 14.1997 13.0203C13.3861 13.0203 12.6704 12.6008 12.2537 11.9658H14.686L15.1241 11.0263H11.8958C11.8791 10.9133 11.8702 10.7977 11.8702 10.68C11.8702 10.6004 11.8742 10.5217 11.882 10.4439H15.3956L15.8336 9.50474H12.1857C12.5892 8.80853 13.3399 8.33996 14.1997 8.33996Z" fill="#FFBE00"/>
</g>
</g>
</svg>
