<svg xmlns="http://www.w3.org/2000/svg" viewBox="0 0 400 400"><defs><style>.cls-1{isolation:isolate;}.cls-2{fill:#ff0062;stroke:#e84d81;stroke-miterlimit:10;stroke-width:0.5px;}.cls-3{fill:#002bff;}.cls-4{fill:#1d1d1b;}.cls-5{fill:#fff;}.cls-6{mix-blend-mode:multiply;opacity:0.18;}</style></defs><g class="cls-1"><g id="Layer_1" data-name="Layer 1"><rect class="cls-2" x="0.27" y="0.73" width="399.07" height="399.27"/><rect class="cls-3" x="219.96" y="114.73" width="121.77" height="38.95" rx="19.47"/><circle class="cls-4" cx="322.46" cy="134.22" r="19.46"/><polygon class="cls-5" points="97.97 143.28 75.2 143 74.97 161.96 61.67 161.79 61.43 181.74 74.72 181.9 74.05 237.06 96.82 237.34 97.5 182.18 111.93 182.35 112.17 162.42 97.74 162.24 97.97 143.28"/><path class="cls-5" d="M180.51,166.72a45.69,45.69,0,0,0-41.66-.51,37.23,37.23,0,0,0-14.6,13.68,39.14,39.14,0,0,0-5.48,20.21,38.62,38.62,0,0,0,5,20.1,37,37,0,0,0,14.28,14,45.76,45.76,0,0,0,41.65.52,37.29,37.29,0,0,0,14.53-13.69,38.63,38.63,0,0,0,5.48-19.95,39.1,39.1,0,0,0-5-20.37A37.3,37.3,0,0,0,180.51,166.72Zm-4,34.11a20.07,20.07,0,0,1-2.24,9.88,17.91,17.91,0,0,1-6.22,6.85,17,17,0,0,1-17.88-.22,17.79,17.79,0,0,1-6.14-7,21.35,21.35,0,0,1-2.14-9.94,21.9,21.9,0,0,1,2.4-10.16,17.62,17.62,0,0,1,6.31-6.85,16.09,16.09,0,0,1,8.94-2.44,16.34,16.34,0,0,1,8.94,2.58,17.3,17.3,0,0,1,6.08,7,21.2,21.2,0,0,1,1.95,10.29Z"/><g class="cls-6"><path d="M277.19,168a30.45,30.45,0,0,0-17.06-5.16A32.93,32.93,0,0,0,247.79,165a29.87,29.87,0,0,0-9.77,6c-.3.29-.59.59-.87.88l-.38-7.9-21.63-.27L213.83,269.9l22.92.28.47-38.62a31.88,31.88,0,0,0,39.07,4.24,34.45,34.45,0,0,0,12-13.65,44.51,44.51,0,0,0,4.53-19.89,45.68,45.68,0,0,0-4.06-20.35A33.93,33.93,0,0,0,277.19,168Zm-8.68,44.25a15.69,15.69,0,0,1-5.88,6.79,16,16,0,0,1-8.87,2.29,16.65,16.65,0,0,1-9-2.51,16,16,0,0,1-5.85-6.93,23.49,23.49,0,0,1-2-10.32,23.85,23.85,0,0,1,2.24-10.44,16.62,16.62,0,0,1,6-6.79,16.3,16.3,0,0,1,9.08-2.33,15.65,15.65,0,0,1,8.81,2.58,16.2,16.2,0,0,1,5.71,7A24.66,24.66,0,0,1,270.71,202,24.25,24.25,0,0,1,268.51,212.22Z"/></g><path class="cls-5" d="M277,168A30.44,30.44,0,0,0,260,162.81,33,33,0,0,0,247.64,165a29.93,29.93,0,0,0-9.76,6l-.88.88-.37-7.9L215,163.68,213.69,269.9l22.92.28.47-38.62a31.87,31.87,0,0,0,39.06,4.24,34.45,34.45,0,0,0,12.05-13.65,44.52,44.52,0,0,0,4.54-19.89,45.82,45.82,0,0,0-4.06-20.35A34,34,0,0,0,277,168Zm-8.67,44.25a15.71,15.71,0,0,1-5.89,6.79,16,16,0,0,1-8.87,2.29,16.61,16.61,0,0,1-9-2.51,16,16,0,0,1-5.85-6.93,23.5,23.5,0,0,1-2-10.32A23.86,23.86,0,0,1,239,191.1a16.62,16.62,0,0,1,6-6.79,16.28,16.28,0,0,1,9.08-2.33,15.67,15.67,0,0,1,8.81,2.58,16.2,16.2,0,0,1,5.71,7A24.66,24.66,0,0,1,270.57,202,24.25,24.25,0,0,1,268.37,212.22Z"/><rect class="cls-5" x="282.69" y="191.11" width="75.11" height="22.78" transform="translate(113.84 520.24) rotate(-89.3)"/></g></g></svg>