<svg viewBox="0 0 61 35" fill="none" xmlns="http://www.w3.org/2000/svg" aria-labelledby="title description" role="img">
<title id="title">topi</title>
<desc id="description">Company logo</desc>
<path d="M55.7945 1H38.0762C35.776 1 33.9114 2.86467 33.9114 5.16486V5.167C33.9114 7.46719 35.776 9.33186 38.0762 9.33186H55.7945C58.0947 9.33186 59.9594 7.46719 59.9594 5.167V5.16486C59.9594 2.86467 58.0947 1 55.7945 1Z" fill="#002BFF"/>
<path d="M55.8373 9.33276C58.1363 9.33276 60 7.46905 60 5.17005C60 2.87104 58.1363 1.00732 55.8373 1.00732C53.5383 1.00732 51.6746 2.87104 51.6746 5.17005C51.6746 7.46905 53.5383 9.33276 55.8373 9.33276Z" fill="#FF0062" stroke="#FF0062" stroke-width="0.0738478" stroke-miterlimit="10"/>
<path d="M7.81633 7.10677L2.94556 7.04688L2.89636 11.1026L0.0513391 11.0663L0 15.3338L2.84289 15.368L2.69743 27.1674L7.57033 27.2273L7.71579 15.4279L10.8004 15.4643L10.8517 11.1989L7.76713 11.1625L7.81633 7.10677Z" fill="#000000"/>
<path d="M25.4739 12.1238C24.1035 11.4005 22.5808 11.0134 21.0313 10.9944C19.4818 10.9754 17.9501 11.3251 16.5624 12.0147C15.273 12.6857 14.1927 13.698 13.4393 14.941C12.6631 16.2489 12.2579 17.7434 12.267 19.2642C12.2241 20.7675 12.594 22.2539 13.3366 23.5617C14.0585 24.825 15.1147 25.8649 16.3891 26.5671C17.7594 27.2894 19.2817 27.676 20.8307 27.695C22.3796 27.7139 23.9109 27.3648 25.2985 26.6762C26.5823 26.0028 27.6572 24.9908 28.4067 23.7499C29.1792 22.4609 29.5845 20.9852 29.5789 19.4824C29.626 17.9596 29.2562 16.4529 28.5093 15.125C27.7889 13.8675 26.7395 12.83 25.4739 12.1238ZM24.6183 19.4203C24.6411 20.1534 24.4761 20.8802 24.1391 21.5316C23.8312 22.1285 23.3725 22.6343 22.8086 22.9991C22.2296 23.3473 21.5651 23.5274 20.8895 23.5191C20.214 23.5107 19.5541 23.3144 18.9839 22.952C18.4209 22.5784 17.9675 22.0615 17.6704 21.4546C17.348 20.7934 17.1909 20.0637 17.2127 19.3284C17.2051 18.5733 17.3805 17.8276 17.7239 17.155C18.0355 16.5547 18.5014 16.0482 19.0737 15.6876C19.6466 15.331 20.3115 15.1503 20.9861 15.1678C21.668 15.1596 22.3373 15.3515 22.9113 15.7197C23.4718 16.0919 23.9206 16.6094 24.2097 17.217C24.5352 17.9031 24.6824 18.6602 24.6375 19.4182L24.6183 19.4203Z" fill="#000000"/>
<g style="mix-blend-mode:multiply" opacity="0.18">
<g style="mix-blend-mode:multiply" opacity="0.18">
<path d="M46.1517 12.3875C45.072 11.6633 43.8003 11.2789 42.5002 11.2837C41.5984 11.2682 40.702 11.4273 39.8606 11.7522C39.0879 12.0417 38.3783 12.4775 37.7707 13.0357L37.5824 13.2261L37.5033 11.5362L32.8742 11.4677L32.594 34.1915L37.4968 34.2514L37.5974 25.9902C38.6889 27.0524 40.1046 27.7188 41.6188 27.8832C43.133 28.0476 44.6587 27.7005 45.9528 26.8972C47.0583 26.1726 47.9486 25.1641 48.5304 23.9773C49.1791 22.6533 49.5116 21.1968 49.5016 19.7226C49.5499 18.2241 49.2527 16.7347 48.6331 15.3695C48.0921 14.1686 47.2343 13.1377 46.1517 12.3875ZM44.2971 21.8531C44.0269 22.4492 43.5892 22.9539 43.0372 23.3056C42.4663 23.6492 41.8078 23.8194 41.1419 23.7954C40.4622 23.8029 39.7944 23.6167 39.2167 23.2585C38.665 22.8948 38.2304 22.3792 37.9653 21.774C37.6576 21.0807 37.5113 20.3266 37.5375 19.5685C37.5233 18.7981 37.6842 18.0345 38.0081 17.3353C38.2931 16.7416 38.7375 16.2388 39.2916 15.8828C39.8761 15.5299 40.5516 15.3565 41.2339 15.3844C41.9031 15.3759 42.5596 15.5681 43.1184 15.9363C43.6598 16.309 44.0836 16.8285 44.3399 17.4337C44.6374 18.138 44.7783 18.8985 44.7527 19.6627C44.7618 20.4172 44.6063 21.1647 44.2971 21.8531Z" fill="#000000"/>
</g>
</g>
<path d="M46.1219 12.3875C45.0434 11.6641 43.7733 11.2797 42.4747 11.2837C41.5721 11.2684 40.6751 11.4275 39.8329 11.7522C39.0609 12.0419 38.3521 12.4777 37.7451 13.0357C37.6788 13.0998 37.6167 13.164 37.5568 13.226L37.4777 11.5361L32.8486 11.4762L32.5706 34.2001L37.4713 34.26L37.5739 25.9987C38.6659 27.0584 40.0809 27.7225 41.5938 27.8853C43.1066 28.0481 44.6305 27.7003 45.9229 26.8971C47.0284 26.1726 47.9187 25.1641 48.5005 23.9772C49.1483 22.653 49.4807 21.1967 49.4717 19.7225C49.5193 18.2239 49.2214 16.7345 48.6011 15.3694C48.0616 14.1682 47.2044 13.1372 46.1219 12.3875ZM44.2672 21.8531C43.9971 22.4492 43.5593 22.9539 43.0073 23.3056C42.4358 23.6495 41.7765 23.8197 41.1099 23.7954C40.4301 23.8036 39.7621 23.6173 39.1847 23.2585C38.6322 22.8951 38.1968 22.3795 37.9312 21.7739C37.6245 21.0804 37.4782 20.3265 37.5034 19.5685C37.4928 18.7975 37.6566 18.0341 37.9825 17.3353C38.2671 16.7413 38.7115 16.2383 39.266 15.8828C39.8506 15.5298 40.526 15.3565 41.2083 15.3844C41.8768 15.3762 42.5325 15.5684 43.0907 15.9363C43.6322 16.3095 44.0565 16.8288 44.3143 17.4337C44.5969 18.1377 44.7373 18.8906 44.7274 19.6492C44.7175 20.4077 44.5574 21.1567 44.2565 21.8531H44.2672Z" fill="#000000"/>
<path d="M53.0232 11.7141L52.8269 27.7798L57.6994 27.8393L57.8957 11.7736L53.0232 11.7141Z" fill="#000000"/>
</svg>
