<svg viewBox="0 0 56 32" fill="none" xmlns="http://www.w3.org/2000/svg" aria-labelledby="title description" role="img">
<title id="title">topi</title>
<desc id="description">Company logo</desc>
<path d="M51.1997 0.908813H35.4883C33.4259 0.908813 31.7476 2.58676 31.7476 4.65128C31.7476 6.71391 33.4259 8.39186 35.4883 8.39186H51.1997C53.2621 8.39186 54.9404 6.71391 54.9404 4.64939C54.9404 2.58657 53.2621 0.908813 51.1997 0.908813Z" fill="#FF0062"/>
<path d="M51.2379 0.888916C49.1631 0.888916 47.4751 2.57673 47.4751 4.6513C47.4751 6.72588 49.1629 8.41369 51.2379 8.41369C53.3126 8.41369 55.0003 6.72588 55.0003 4.6513C55.0003 2.57673 53.3126 0.888916 51.2379 0.888916Z" fill="black"/>
<path d="M8.5086 6.60182L4.19101 6.60144L4.18949 10.1965L1.6665 10.1967L1.66707 13.9794L4.18836 13.9807L4.18911 24.4445L8.50841 24.4448L8.50955 13.9813L11.2469 13.98L11.2463 10.1973L8.50898 10.1965L8.5086 6.60182Z" fill="white"/>
<path d="M24.2183 10.8564C23.0036 10.2026 21.6401 9.87405 20.261 9.90308C18.8871 9.88012 17.5299 10.2075 16.3174 10.8543C15.1814 11.4632 14.2345 12.3724 13.5799 13.4828C12.9025 14.6497 12.5567 15.9796 12.5797 17.3288C12.5573 18.6629 12.9014 19.9776 13.5746 21.1295C14.2297 22.2384 15.1774 23.1457 16.3136 23.7519C18.7949 25.0192 21.7335 25.0192 24.2147 23.7521C25.3452 23.1396 26.2872 22.2303 26.9388 21.1218C27.6108 19.9675 27.9542 18.6513 27.9318 17.3157C27.9561 15.9658 27.6118 14.6347 26.9363 13.4657C26.2842 12.3652 25.3447 11.4632 24.2183 10.8564ZM23.5387 17.3355C23.5658 17.9853 23.4268 18.6314 23.1349 19.2126C22.8685 19.745 22.4672 20.1978 21.971 20.5263C20.9321 21.1696 19.6187 21.1701 18.5792 20.5281C18.076 20.2026 17.6685 19.7494 17.3984 19.2145C17.1071 18.6318 16.9601 17.9874 16.9694 17.336C16.9551 16.6665 17.1033 16.0033 17.4011 15.4035C17.6697 14.8669 18.0777 14.4126 18.5821 14.0877C19.0855 13.7641 19.6735 13.5964 20.2721 13.6061C20.8734 13.5934 21.4654 13.7561 21.9755 14.0746C22.4772 14.3978 22.8811 14.8521 23.143 15.3884C23.4384 15.994 23.577 16.6642 23.5463 17.3374L23.5387 17.3355Z" fill="white"/>
<path d="M42.5319 10.8659C41.5678 10.2348 40.4365 9.90705 39.2842 9.92488C38.4843 9.92242 37.6916 10.0738 36.9488 10.3708C36.2665 10.6351 35.6419 11.0292 35.1096 11.5315C35.0533 11.5871 34.9971 11.6448 34.9448 11.7022L34.8562 10.2028L30.7529 10.2018L30.7601 30.3476H35.1081L35.1077 23.0214C37.122 24.9374 40.1835 25.2318 42.5261 23.7352C43.4993 23.082 44.278 22.1777 44.7799 21.1183C45.3391 19.9377 45.6155 18.6432 45.5874 17.3372C45.6118 16.0105 45.3317 14.6958 44.7683 13.4944C44.2765 12.431 43.5031 11.522 42.5319 10.8659ZM40.9883 19.2771C40.7565 19.809 40.3743 20.2612 39.8887 20.5785C39.386 20.8903 38.8031 21.0485 38.2117 21.0336C37.6089 21.0493 37.0142 20.8913 36.4988 20.5783C36.0047 20.2642 35.6117 19.8137 35.3676 19.2812C35.0882 18.6688 34.9503 18.0015 34.9643 17.3285C34.9468 16.6448 35.0844 15.9658 35.3668 15.343C35.6126 14.8138 36.0015 14.3637 36.4892 14.0433C37.0032 13.7224 37.6002 13.5608 38.206 13.5784C38.7995 13.5642 39.3836 13.7282 39.883 14.0492C40.3669 14.3741 40.7483 14.8299 40.9822 15.3637C41.2557 15.9825 41.3921 16.6532 41.3819 17.3298C41.3948 18.0011 41.2605 18.6671 40.9883 19.2809V19.2771Z" fill="white"/>
<path d="M52.9663 10.1944H48.6455V24.4416H52.9663V10.1944Z" fill="white"/>
</svg>
